<svg xmlns="http://www.w3.org/2000/svg" width="500" height="500" style="width:100%;height:100%"><defs><clipPath id="a"><path d="M0 0h500v500H0z"/></clipPath></defs><g clip-path="url(#a)"><path stroke-linecap="round" stroke-linejoin="round" stroke="#121330" stroke-width="12.6" d="M101.402 189.976C93.906 208.514 89.779 228.775 89.779 250c0 88.488 71.733 160.221 160.221 160.221S410.221 338.488 410.221 250c0 0 0 0 0 0 0-88.488-71.733-160.221-160.221-160.221-67.263 0-124.845 41.448-148.598 100.197" fill="none" display="block"/><path stroke-linecap="round" stroke-linejoin="round" stroke="#07A889" stroke-width="12.271700000000001" d="M154.165 263.413c28.632 28.523 57.364 56.45 57.364 56.45s96.88-89.983 140.378-135.504c.19-.201.38-.402.564-.604" fill="none" display="block"/></g></svg>