<svg width="732" height="558" viewBox="0 0 732 558" fill="none" xmlns="http://www.w3.org/2000/svg">
<path opacity="0.5" d="M414.605 0H78.2536C35.0352 0 0 35.0354 0 78.2538V294.991C0 338.21 35.0352 373.245 78.2536 373.245H414.605C457.823 373.245 492.858 338.21 492.858 294.991V78.2538C492.858 35.0354 457.823 0 414.605 0Z" fill="#CCCCCC"/>
<path opacity="0.5" d="M683.483 327.848H356.382C329.799 327.848 308.25 349.397 308.25 375.98V509.288C308.25 535.87 329.799 557.42 356.382 557.42H683.483C710.066 557.42 731.615 535.87 731.615 509.288V375.98C731.615 349.397 710.066 327.848 683.483 327.848Z" fill="#CCCCCC"/>
<path d="M241.86 399.48H273.288V430.908" stroke="#0F3559" stroke-width="5.66929" stroke-linecap="round" stroke-linejoin="round"/>
<path d="M390.721 382.143L437.805 443.716C447.227 456.035 461.85 463.262 477.359 463.262H564.787C571.662 463.262 577.235 457.689 577.235 450.814C577.235 443.939 571.662 438.365 564.787 438.365H489.012C472.725 438.365 459.086 425.037 459.397 408.753C459.7 392.972 472.586 380.274 488.439 380.274H575.575C600.594 356.218 639.202 353.403 667.445 373.577L676.821 380.274V521.353H593.833H577.235H460.335C434.921 521.353 411.251 508.43 397.508 487.053L348.927 411.483C346.278 407.361 344.869 402.565 344.869 397.665C344.868 373.228 375.877 362.731 390.721 382.143V382.143Z" stroke="#0F3559" stroke-width="7.55906"/>
<path d="M229.903 258.264L119.551 219.316V294.195C119.551 303.335 126.961 310.744 136.1 310.744H356.761C365.9 310.744 373.309 303.335 373.309 294.195V219.316L262.954 258.266C257.635 260.144 252.075 261.096 246.43 261.096C240.785 261.096 235.225 260.144 229.903 258.264V258.264Z" stroke="#0F3559" stroke-width="9.18215" stroke-linecap="round" stroke-linejoin="round"/>
<path d="M53.3622 160.855L240.922 227.053C242.705 227.682 244.568 227.997 246.43 227.997C248.293 227.997 250.156 227.682 251.938 227.053L417.442 168.64V233.513C417.442 242.653 424.852 250.062 433.991 250.062C443.131 250.062 450.541 242.653 450.541 233.513V145.249C450.541 138.233 446.116 131.979 439.499 129.643L251.938 63.4449C248.374 62.186 244.486 62.186 240.922 63.4449L53.3622 129.643C46.7457 131.979 42.3193 138.233 42.3193 145.249C42.3193 152.265 46.7457 158.519 53.3622 160.855V160.855Z" stroke="#0F3559" stroke-width="9.18215" stroke-linecap="round" stroke-linejoin="round"/>
<path d="M522.692 315C530.223 315 536.329 308.895 536.329 301.363C536.329 293.832 530.223 287.726 522.692 287.726C515.16 287.726 509.055 293.832 509.055 301.363C509.055 308.895 515.16 315 522.692 315Z" stroke="#FF4747" stroke-width="3.40157" stroke-linecap="round" stroke-linejoin="round"/>
</svg>
