<svg width="26" height="32" viewBox="0 0 26 32" fill="none" xmlns="http://www.w3.org/2000/svg">
<path d="M26 28.8V6.4C26 4.6352 24.7043 3.2 23.1111 3.2H20.2222V0H17.3333V3.2H8.66667V0H5.77778V3.2H2.88889C1.29567 3.2 0 4.6352 0 6.4V28.8C0 30.5648 1.29567 32 2.88889 32H23.1111C24.7043 32 26 30.5648 26 28.8ZM8.66667 25.6H5.77778V22.4H8.66667V25.6ZM8.66667 19.2H5.77778V16H8.66667V19.2ZM14.4444 25.6H11.5556V22.4H14.4444V25.6ZM14.4444 19.2H11.5556V16H14.4444V19.2ZM20.2222 25.6H17.3333V22.4H20.2222V25.6ZM20.2222 19.2H17.3333V16H20.2222V19.2ZM23.1111 11.2H2.88889V8H23.1111V11.2Z" fill="black"/>
</svg>
