<svg width="75" height="75" viewBox="0 0 75 75" fill="none" xmlns="http://www.w3.org/2000/svg">
<path d="M37.2016 69.4042C54.9863 69.4042 69.4042 54.9868 69.4042 37.2021C69.4042 19.4174 54.9863 5 37.2016 5C19.417 5 5 19.4174 5 37.2021C5 54.9868 19.417 69.4042 37.2016 69.4042Z" fill="#FF4747" stroke="#FF4747" stroke-width="9.273" stroke-linecap="round" stroke-linejoin="round"/>
<path d="M62.157 26.377L45.248 37.5529L62.157 48.2759V26.377Z" fill="white"/>
<path d="M28.909 37.5529L12 26.377V48.2759L28.909 37.5529Z" fill="white"/>
<path d="M59.0218 20H15.1349C13.5706 20 12.3292 21.1698 12.0941 22.676L37.0784 39.1883L62.0626 22.676C61.8273 21.1698 60.586 20 59.0218 20Z" fill="white"/>
<path d="M42.3763 39.4522L37.9405 42.3829C37.6772 42.5558 37.3795 42.6407 37.0786 42.6407C36.7775 42.6407 36.4797 42.5558 36.2164 42.3829L31.7807 39.449L12.1006 51.9362C12.342 53.4298 13.5771 54.5901 15.1351 54.5901H59.0219C60.5799 54.5901 61.815 53.4298 62.0564 51.9362L42.3763 39.4522Z" fill="white"/>
<g opacity="0.1">
<path opacity="0.1" d="M62.157 26.377L45.248 37.5529L62.157 48.2759V26.377Z" fill="#FF4747"/>
<path opacity="0.1" d="M28.909 37.5529L12 26.377V48.2759L28.909 37.5529Z" fill="#FF4747"/>
<path opacity="0.1" d="M59.0218 20H15.1349C13.5706 20 12.3292 21.1698 12.0941 22.676L37.0784 39.1883L62.0626 22.676C61.8273 21.1698 60.586 20 59.0218 20Z" fill="#FF4747"/>
<path opacity="0.1" d="M42.3763 39.4522L37.9405 42.3829C37.6772 42.5558 37.3795 42.6407 37.0786 42.6407C36.7775 42.6407 36.4797 42.5558 36.2164 42.3829L31.7807 39.449L12.1006 51.9362C12.342 53.4298 13.5771 54.5901 15.1351 54.5901H59.0219C60.5799 54.5901 61.815 53.4298 62.0564 51.9362L42.3763 39.4522Z" fill="#FF4747"/>
</g>
</svg>
