<svg width="3007" height="1255" viewBox="0 0 3007 1255" fill="none" xmlns="http://www.w3.org/2000/svg">
<g clip-path="url(#clip0)">
<path opacity="0.25" d="M2058.09 1179.34H2018.12C2014.25 1179.34 2011.11 1182.48 2011.11 1186.35V1212.21H1982.22V1189.45H1991.08C1994.95 1189.45 1998.09 1186.31 1998.09 1182.45V1131.51H2018.12C2022.92 1131.51 2026.29 1126.78 2024.74 1122.25L2018.31 1103.37C2014.06 1088.48 1998.23 1078.1 1979.72 1078.1H1951.14V1052.87C1951.14 1049 1948 1045.86 1944.14 1045.86C1940.27 1045.86 1937.13 1049 1937.13 1052.87V1078.1H1910.06C1895.39 1078.1 1882 1084.73 1875.1 1095.4C1873.01 1098.65 1873.95 1102.98 1877.19 1105.08C1880.43 1107.18 1884.77 1106.25 1886.87 1103C1891.14 1096.39 1900.25 1092.11 1910.06 1092.11H1979.72C1991.84 1092.11 2002.42 1098.51 2004.87 1107.32C2004.87 1107.59 2004.65 1106.71 2008.33 1117.5H1872.25C1868.38 1117.5 1865.24 1120.64 1865.24 1124.51C1865.24 1128.37 1868.38 1131.51 1872.25 1131.51H1890.18V1182.45C1890.18 1186.31 1893.32 1189.45 1897.19 1189.45H1906.05V1212.21H1836.44V1153.48C1836.44 1149.61 1833.31 1146.47 1829.44 1146.47C1825.57 1146.47 1822.43 1149.61 1822.43 1153.48V1212.21H1796.61V1153.48C1796.61 1149.61 1793.47 1146.47 1789.6 1146.47H1752.98C1749.11 1146.47 1745.97 1149.61 1745.97 1153.48V1212.21H1720V1131.51H1853.44C1858.24 1131.51 1861.62 1126.79 1860.07 1122.25L1853.63 1103.37C1849.57 1089.12 1834.88 1079.01 1817.4 1078.17V1056.93H1841.26C1846.06 1056.93 1849.43 1052.2 1847.89 1047.67L1841.45 1028.79C1837.38 1014.54 1822.7 1004.43 1805.22 1003.59V985.452H1828.13C1833.19 985.452 1836.58 980.239 1834.53 975.612L1828.23 961.371C1824.03 947.288 1809.44 937.32 1792.09 936.486V927.667C1792.09 923.799 1788.95 920.663 1785.08 920.663C1781.22 920.663 1778.08 923.799 1778.08 927.667V935.547H1764.36V911.032H1819.37C1824.43 911.032 1827.82 905.819 1825.78 901.192L1819.47 886.951C1815.09 872.234 1799.35 862.002 1780.97 862.002H1778.22V840.99C1778.22 837.122 1775.09 833.985 1771.22 833.985C1767.35 833.985 1764.21 837.122 1764.21 840.99V862.002H1760.88C1742.11 862.002 1726.29 872.508 1722.19 887.616L1716.58 901.384C1714.7 905.985 1718.08 911.033 1723.06 911.033H1750.35V936.455C1732.36 937.095 1717.4 947.407 1713.43 962.036L1707.82 975.804C1705.95 980.406 1709.33 985.453 1714.31 985.453H1791.21V1003.53H1738.99C1720.09 1003.53 1704.18 1014.18 1700.22 1029.45L1694.49 1047.85C1693.09 1052.36 1696.46 1056.94 1701.17 1056.94H1725.03V1078.14C1706.92 1078.78 1691.88 1089.23 1688.04 1104.03L1682.31 1122.42C1680.89 1126.93 1684.27 1131.51 1688.99 1131.51H1705.99V1212.22H1671.98V1211.34C1671.98 1207.47 1668.85 1204.34 1664.98 1204.34C1661.11 1204.34 1657.97 1207.47 1657.97 1211.34V1240.23H1632.01V1193.35H1664.98C1668.85 1193.35 1671.98 1190.22 1671.98 1186.35C1671.98 1182.48 1668.85 1179.34 1664.98 1179.34H1625C1621.14 1179.34 1618 1182.48 1618 1186.35V1247.24C1618 1251.1 1621.14 1254.24 1625 1254.24H1713C1716.86 1254.24 1720 1251.1 1720 1247.24C1720 1243.37 1716.86 1240.23 1713 1240.23H1671.98V1226.22H2011.11V1240.23H1758.96C1755.09 1240.23 1751.96 1243.37 1751.96 1247.24C1751.96 1251.1 1755.09 1254.24 1758.96 1254.24H2058.09C2061.96 1254.24 2065.09 1251.1 2065.09 1247.24V1186.35C2065.09 1182.48 2061.96 1179.34 2058.09 1179.34V1179.34ZM1735.64 891.55C1737.91 882.546 1748.53 876.012 1760.88 876.012H1780.97C1793.1 876.012 1803.68 882.409 1806.12 891.223C1806.34 891.991 1806.45 892.167 1808.61 897.024H1733.48C1735.52 892.024 1735.48 892.184 1735.64 891.55V891.55ZM1726.88 965.969C1729.16 956.966 1739.77 950.431 1752.12 950.431H1789.73C1801.86 950.431 1812.43 956.829 1814.88 965.643C1815.09 966.41 1815.21 966.587 1817.37 971.444H1724.73C1726.77 966.444 1726.72 966.604 1726.88 965.969ZM1784.06 1056.94C1787.93 1056.94 1791.06 1053.8 1791.06 1049.93C1791.06 1046.06 1787.93 1042.93 1784.06 1042.93H1710.69L1713.65 1033.45C1717.07 1022.48 1728.11 1017.54 1738.99 1017.54H1802.86C1814.99 1017.54 1825.57 1023.93 1828.01 1032.75C1828.01 1033.04 1827.82 1032.32 1831.47 1042.93H1806.53C1799.18 1042.93 1796.8 1052.88 1803.4 1056.19V1077.23H1739.04V1056.94H1784.06ZM1701.46 1108.02C1704.89 1097.05 1715.93 1092.11 1726.81 1092.11H1815.04C1827.17 1092.11 1837.75 1098.51 1840.19 1107.32C1840.19 1107.61 1840 1106.77 1843.65 1117.5H1698.51L1701.46 1108.02ZM1920.06 1189.45H1935.38C1939.25 1189.45 1942.38 1186.31 1942.38 1182.45C1942.38 1178.58 1939.25 1175.44 1935.38 1175.44H1904.19V1131.51H1984.08V1175.44H1955.51C1951.65 1175.44 1948.51 1178.58 1948.51 1182.45C1948.51 1186.31 1951.65 1189.45 1955.51 1189.45H1968.21V1212.21H1920.06V1189.45ZM1759.98 1160.48H1782.6V1212.21H1759.98V1160.48ZM2051.09 1240.23H2025.12V1193.35H2051.09V1240.23Z" fill="#FF4747"/>
<g opacity="0.25">
<g opacity="0.25">
<path opacity="0.25" d="M1324.74 973.976H1262.1V956.891C1262.1 952.269 1258.35 948.522 1253.73 948.522H1206.41L1211.9 933.177H1219.28C1222.94 933.177 1226.17 930.803 1227.27 927.314L1235.64 900.638C1236.43 898.096 1235.97 895.326 1234.4 893.179C1232.82 891.032 1230.31 889.764 1227.65 889.764H1165.44L1147.02 652.43L1166.44 629.964C1168.58 627.487 1169.08 623.988 1167.72 621.01C1166.36 618.033 1163.38 616.123 1160.11 616.123H1147.81C1148.09 610.095 1146.9 603.935 1144.24 599.181L1126.02 566.528C1124.54 563.879 1121.74 562.238 1118.71 562.238C1115.68 562.238 1112.88 563.879 1111.4 566.528L1093.73 598.186C1090.93 603.21 1089.64 609.721 1089.92 616.124H1077.33C1074.04 616.124 1071.06 618.046 1069.71 621.039C1068.35 624.031 1068.87 627.54 1071.04 630.011L1090.73 652.466L1072.31 889.766H1010.08C1007.42 889.766 1004.92 891.035 1003.34 893.182C1001.76 895.329 1001.3 898.098 1002.1 900.641L1010.47 927.316C1011.56 930.805 1014.8 933.179 1018.45 933.179H1025.85L1031.34 948.525H977.563C972.941 948.525 969.194 952.272 969.194 956.894V973.977H913.005C908.383 973.977 904.637 977.724 904.637 982.346C904.637 986.968 908.383 990.715 913.005 990.715H1162.54C1167.16 990.715 1170.91 986.967 1170.91 982.346C1170.91 977.724 1167.16 973.977 1162.54 973.977H985.93V965.262H1245.34H1245.36V973.978H1228.62C1224 973.978 1220.25 977.725 1220.25 982.347C1220.25 986.969 1224 990.715 1228.62 990.715H1324.74C1329.36 990.715 1333.11 986.969 1333.11 982.347C1333.11 977.722 1329.37 973.976 1324.74 973.976V973.976ZM1108.35 606.343L1118.71 587.778L1129.63 607.339C1130.84 609.503 1131.31 612.944 1131.04 616.123H1106.7C1106.43 612.563 1106.99 608.779 1108.35 606.343V606.343ZM1141.81 632.86L1134.57 641.229H1103.14L1095.8 632.86H1141.81ZM1107.09 657.966H1130.66L1148.65 889.764H1089.1L1107.09 657.966ZM1024.6 916.44L1021.48 906.502H1216.25L1213.13 916.44H1024.6ZM1188.63 948.522H1049.12L1043.63 933.177H1194.12L1188.63 948.522Z" fill="#FF4747"/>
</g>
</g>
<path opacity="0.25" d="M-159.788 1146.39H2212.05" stroke="#FF4747" stroke-width="15.1181" stroke-linecap="round" stroke-linejoin="round"/>
<path opacity="0.25" d="M2613.36 1055.83H3006.72" stroke="#FF4747" stroke-width="15.1181" stroke-linecap="round" stroke-linejoin="round"/>
<g opacity="0.25">
<path opacity="0.25" d="M308.664 876.285V408.142C308.664 406.551 309.297 405.025 310.422 403.899C311.547 402.774 313.073 402.142 314.665 402.142H425.106C425.894 402.142 426.675 402.297 427.403 402.599C428.131 402.9 428.792 403.342 429.349 403.899C429.906 404.456 430.348 405.118 430.65 405.846C430.951 406.574 431.107 407.354 431.107 408.142V453.594L466.095 480.683C466.819 481.244 467.405 481.963 467.808 482.785C468.212 483.607 468.421 484.511 468.421 485.427V511.089H512.582V464.989C512.582 463.398 513.215 461.872 514.34 460.746C515.465 459.621 516.992 458.989 518.583 458.989C520.174 458.989 521.7 459.621 522.825 460.746C523.95 461.872 524.583 463.398 524.583 464.989V511.094H587.25C588.841 511.094 590.368 511.726 591.493 512.851C592.618 513.977 593.251 515.503 593.251 517.094V546.952H612.221C613.813 546.952 615.339 547.584 616.464 548.709C617.589 549.835 618.222 551.361 618.222 552.952V876.163H662.74V837.415H625.599C624.722 837.415 623.856 837.222 623.061 836.851C622.266 836.48 621.561 835.939 620.998 835.266C620.435 834.593 620.027 833.805 619.802 832.957C619.576 832.109 619.539 831.222 619.694 830.358L625.994 795.15C626.228 793.868 626.875 792.698 627.836 791.818L632.606 764.489C632.772 763.558 633.156 762.679 633.727 761.925C634.297 761.171 635.038 760.563 635.889 760.151L640.52 733.797C640.688 732.853 641.081 731.963 641.666 731.203C642.25 730.442 643.009 729.833 643.879 729.428L648.951 703.017C649.145 702.007 649.596 701.064 650.26 700.279C650.924 699.494 651.778 698.892 652.741 698.532L672.506 639.922C672.908 638.732 673.672 637.698 674.692 636.965C675.712 636.233 676.937 635.839 678.192 635.839C679.448 635.839 680.672 636.233 681.692 636.965C682.712 637.698 683.476 638.732 683.877 639.922L703.644 698.532C704.607 698.892 705.462 699.494 706.125 700.279C706.789 701.065 707.24 702.007 707.435 703.017L712.507 729.428C713.376 729.833 714.136 730.442 714.721 731.202C715.305 731.963 715.698 732.853 715.867 733.797L720.497 760.15C721.348 760.562 722.089 761.171 722.66 761.925C723.231 762.679 723.614 763.558 723.779 764.489L728.551 791.818C729.511 792.698 730.158 793.868 730.392 795.15L736.693 830.358C736.847 831.222 736.81 832.109 736.585 832.957C736.359 833.805 735.951 834.593 735.388 835.266C734.825 835.939 734.121 836.48 733.326 836.851C732.531 837.222 731.664 837.415 730.786 837.415H693.647V847.807C700.525 843.642 708.736 842.269 716.595 843.967C724.453 845.666 731.364 850.308 735.908 856.941C741.125 857.503 746.041 859.66 749.987 863.12C753.932 866.579 756.714 871.172 757.952 876.271C763.374 876.818 768.4 879.358 772.058 883.398C775.715 887.439 777.743 892.692 777.75 898.142C777.75 899.733 777.118 901.26 775.993 902.385C774.868 903.51 773.342 904.142 771.75 904.142H295C294.212 904.142 293.432 903.987 292.704 903.685C291.977 903.384 291.315 902.942 290.757 902.385C290.2 901.828 289.759 901.166 289.457 900.438C289.156 899.71 289.001 898.93 289.001 898.142C289.007 892.716 291.018 887.483 294.648 883.449C298.277 879.415 303.269 876.864 308.664 876.285V876.285ZM345.613 414.142H320.664V876.163H345.613V414.142ZM382.561 414.142H357.613V876.163H382.561V414.142ZM394.562 414.142V876.163H418.942L419.105 414.142H394.562ZM456.421 488.37L431.511 469.083V546.952H443.91V517.089C443.91 515.498 444.542 513.972 445.667 512.846C446.793 511.721 448.319 511.089 449.91 511.089H456.419L456.421 488.37ZM606.222 558.952H577.501C575.909 558.952 574.383 558.32 573.258 557.195C572.133 556.069 571.5 554.543 571.5 552.952C571.5 551.361 572.133 549.835 573.258 548.709C574.383 547.584 575.909 546.952 577.501 546.952H581.251V523.089H455.913V546.952H535.5C537.092 546.952 538.618 547.584 539.743 548.709C540.868 549.835 541.5 551.361 541.5 552.952C541.5 554.543 540.868 556.069 539.743 557.195C538.618 558.32 537.092 558.952 535.5 558.952H430.942V587.934H606.222V558.952ZM606.222 599.934H430.942V628.916H606.222V599.934ZM606.222 640.916H430.942V669.9H606.222V640.916ZM606.222 681.9H430.942V710.882H606.222V681.9ZM606.222 722.882H430.942V751.864H606.222V722.882ZM606.222 763.864H430.942V792.847H606.222V763.864ZM606.222 804.847H430.942V833.829H606.222V804.847ZM606.222 845.829H430.942V876.163H606.222V845.829ZM678.193 660.616L665.537 698.148H690.851L678.193 660.616ZM696.585 710.148H659.803L656.214 728.835H700.176L696.585 710.148ZM704.919 740.835H651.468L648.187 759.521H708.202L704.919 740.835ZM712.825 771.521H643.562L640.301 790.207H716.087L712.825 771.521ZM723.62 825.415L719.464 802.207H636.923L632.769 825.415H723.62ZM674.74 837.415V876.163H681.648V837.415H674.74ZM733.206 868.799C733.047 868.799 732.888 868.799 732.728 868.807C731.593 868.858 730.467 868.585 729.481 868.022C728.495 867.458 727.688 866.626 727.156 865.622C725.57 862.636 723.235 860.112 720.38 858.299C717.525 856.486 714.248 855.446 710.87 855.28C707.492 855.114 704.129 855.828 701.11 857.352C698.091 858.876 695.519 861.158 693.647 863.974V876.161H745.193C744.069 873.947 742.355 872.087 740.239 870.788C738.123 869.488 735.689 868.799 733.206 868.798V868.799ZM763.74 892.142C762.811 890.906 761.608 889.903 760.225 889.213C758.842 888.522 757.317 888.163 755.771 888.163H310.976C309.43 888.164 307.907 888.523 306.524 889.214C305.142 889.904 303.939 890.907 303.011 892.142H763.74Z" fill="#FF4747"/>
<path opacity="0.25" d="M633.163 579.588C629.54 579.588 626.604 576.539 626.604 572.778C626.604 569.017 629.54 565.968 633.163 565.968C636.785 565.968 639.722 569.017 639.722 572.778C639.722 576.539 636.785 579.588 633.163 579.588Z" fill="#FF4747"/>
<path opacity="0.25" d="M638.602 595.891V690.691C638.602 692.282 637.97 693.808 636.845 694.934C635.719 696.059 634.193 696.691 632.602 696.691C631.011 696.691 629.484 696.059 628.359 694.934C627.234 693.808 626.601 692.282 626.601 690.691V595.891C626.601 594.3 627.234 592.774 628.359 591.648C629.484 590.523 631.011 589.891 632.602 589.891C634.193 589.891 635.719 590.523 636.845 591.648C637.97 592.774 638.602 594.3 638.602 595.891V595.891Z" fill="#FF4747"/>
</g>
<path opacity="0.25" d="M459.713 983.095H853.07" stroke="#FF4747" stroke-width="15.1181" stroke-linecap="round" stroke-linejoin="round"/>
<path opacity="0.25" d="M961.384 1083.3H1048.4" stroke="#FF4747" stroke-width="15.1181" stroke-linecap="round" stroke-linejoin="round"/>
<path opacity="0.25" d="M67.0986 900.446H154.118" stroke="#FF4747" stroke-width="15.1181" stroke-linecap="round" stroke-linejoin="round"/>
<g opacity="0.25">
<g opacity="0.25">
<g opacity="0.25">
<path opacity="0.25" d="M279.396 709.188H229.294V647.056C229.294 642.857 225.889 639.452 221.69 639.452C217.491 639.452 214.086 642.857 214.086 647.056V819.139H110.192H83.585V785.228V762.417V718.695V695.884V652.163V629.352V593.235H214.086V611.568C214.086 615.767 217.491 619.172 221.69 619.172C225.889 619.172 229.294 615.767 229.294 611.568V585.632C229.294 581.433 225.889 578.028 221.69 578.028H117.796V331.542C117.796 327.343 114.391 323.938 110.192 323.938H-47.96C-52.159 323.938 -55.564 327.343 -55.564 331.542V445.294H-153.925C-158.124 445.294 -161.529 448.699 -161.529 452.898V639.852H-217.396C-221.595 639.852 -225 643.257 -225 647.456V826.742C-225 830.941 -221.595 834.346 -217.396 834.346H-153.925H4.229C4.236 834.346 4.242 834.345 4.248 834.345H75.981H110.192H221.671C221.677 834.345 221.684 834.346 221.69 834.346H279.396C283.595 834.346 287 830.941 287 826.742V716.792C287 712.593 283.595 709.188 279.396 709.188ZM-161.529 819.138H-209.792V655.06H-161.529V819.138ZM-3.375 819.138H-47.96V819.139H-146.321V777.09H-3.375V819.138ZM-3.375 710.684H-71.906C-76.105 710.684 -79.51 714.089 -79.51 718.288C-79.51 722.487 -76.105 725.892 -71.906 725.892H-3.375V761.882H-146.321V725.892H-107.392C-103.193 725.892 -99.788 722.487 -99.788 718.288C-99.788 714.089 -103.193 710.684 -107.392 710.684H-146.321V674.694H-3.375V710.684ZM-3.375 659.488H-146.321V647.456V623.497H-3.375V659.488ZM-3.375 608.29H-146.321V572.301H-3.375V608.29ZM-3.375 557.093H-146.321V521.103H-3.375V557.093ZM-3.375 505.895H-146.321V460.501H-3.375V505.895ZM68.377 585.633V629.354V652.165V695.886V718.697V762.419V785.23V819.141H11.833V452.897C11.833 448.698 8.429 445.293 4.229 445.293H-6.138V430.086C-6.138 425.887 -9.542 422.482 -13.742 422.482C-17.942 422.482 -21.346 425.887 -21.346 430.086V445.293H-40.356V339.146H102.587V578.029H75.98C71.781 578.029 68.377 581.433 68.377 585.633ZM271.792 819.138H229.295V724.395H271.792V819.138Z" fill="#FF4747"/>
</g>
</g>
<g opacity="0.25">
<g opacity="0.25">
<path opacity="0.25" d="M75.981 488.685C71.781 488.685 68.377 492.09 68.377 496.289V519.1C68.377 523.3 71.782 526.704 75.981 526.704C80.181 526.704 83.585 523.299 83.585 519.1V496.289C83.585 492.09 80.181 488.685 75.981 488.685Z" fill="#FF4747"/>
</g>
</g>
<g opacity="0.25">
<g opacity="0.25">
<path opacity="0.25" d="M31.12 488.685C26.92 488.685 23.516 492.09 23.516 496.289V519.1C23.516 523.3 26.921 526.704 31.12 526.704C35.32 526.704 38.724 523.299 38.724 519.1V496.289C38.724 492.09 35.32 488.685 31.12 488.685Z" fill="#FF4747"/>
</g>
</g>
<g opacity="0.25">
<g opacity="0.25">
<path opacity="0.25" d="M75.981 422.482C71.781 422.482 68.377 425.887 68.377 430.086V452.897C68.377 457.096 71.782 460.501 75.981 460.501C80.181 460.501 83.585 457.096 83.585 452.897V430.086C83.585 425.887 80.181 422.482 75.981 422.482V422.482Z" fill="#FF4747"/>
</g>
</g>
<g opacity="0.25">
<g opacity="0.25">
<path opacity="0.25" d="M31.12 422.482C26.92 422.482 23.516 425.887 23.516 430.086V452.897C23.516 457.096 26.921 460.501 31.12 460.501C35.32 460.501 38.724 457.096 38.724 452.897V430.086C38.724 425.887 35.32 422.482 31.12 422.482V422.482Z" fill="#FF4747"/>
</g>
</g>
<g opacity="0.25">
<g opacity="0.25">
<path opacity="0.25" d="M75.981 356.279C71.781 356.279 68.377 359.684 68.377 363.883V386.694C68.377 390.893 71.782 394.298 75.981 394.298C80.181 394.298 83.585 390.893 83.585 386.694V363.883C83.585 359.684 80.181 356.279 75.981 356.279Z" fill="#FF4747"/>
</g>
</g>
<g opacity="0.25">
<g opacity="0.25">
<path opacity="0.25" d="M31.12 356.279C26.92 356.279 23.516 359.684 23.516 363.883V386.694C23.516 390.893 26.921 394.298 31.12 394.298C35.32 394.298 38.724 390.893 38.724 386.694V363.883C38.724 359.684 35.32 356.279 31.12 356.279Z" fill="#FF4747"/>
</g>
</g>
<g opacity="0.25">
<g opacity="0.25">
<path opacity="0.25" d="M71.918 556.402C68.841 558.338 67.546 562.366 68.961 565.728C70.176 568.596 73.034 570.494 76.163 570.417C79.351 570.339 82.188 568.23 83.197 565.206C85.414 558.555 77.808 552.696 71.918 556.402V556.402Z" fill="#FF4747"/>
</g>
</g>
<g opacity="0.25">
<g opacity="0.25">
<path opacity="0.25" d="M31.12 555.217C26.92 555.217 23.516 558.622 23.516 562.821V585.632C23.516 589.832 26.921 593.236 31.12 593.236C35.32 593.236 38.724 589.831 38.724 585.632V562.821C38.724 558.621 35.32 555.217 31.12 555.217Z" fill="#FF4747"/>
</g>
</g>
<g opacity="0.25">
<g opacity="0.25">
<path opacity="0.25" d="M31.12 754.813C26.92 754.813 23.516 758.218 23.516 762.417V785.228C23.516 789.427 26.921 792.832 31.12 792.832C35.32 792.832 38.724 789.427 38.724 785.228V762.417C38.724 758.217 35.32 754.813 31.12 754.813Z" fill="#FF4747"/>
</g>
</g>
<g opacity="0.25">
<g opacity="0.25">
<path opacity="0.25" d="M31.12 688.281C26.92 688.281 23.516 691.686 23.516 695.885V718.696C23.516 722.895 26.921 726.3 31.12 726.3C35.32 726.3 38.724 722.895 38.724 718.696V695.885C38.724 691.686 35.32 688.281 31.12 688.281Z" fill="#FF4747"/>
</g>
</g>
<g opacity="0.25">
<g opacity="0.25">
<path opacity="0.25" d="M31.12 621.75C26.92 621.75 23.516 625.155 23.516 629.354V652.165C23.516 656.364 26.921 659.769 31.12 659.769C35.32 659.769 38.724 656.364 38.724 652.165V629.354C38.724 625.154 35.32 621.75 31.12 621.75Z" fill="#FF4747"/>
</g>
</g>
<g opacity="0.25">
<g opacity="0.25">
<path opacity="0.25" d="M190.897 752.497H106.774C102.574 752.497 99.17 755.902 99.17 760.101C99.17 764.3 102.574 767.705 106.774 767.705H190.897C195.097 767.705 198.501 764.3 198.501 760.101C198.501 755.902 195.098 752.497 190.897 752.497Z" fill="#FF4747"/>
</g>
</g>
<g opacity="0.25">
<g opacity="0.25">
<path opacity="0.25" d="M190.897 788.441H106.774C102.574 788.441 99.17 791.846 99.17 796.045C99.17 800.244 102.574 803.649 106.774 803.649H190.897C195.097 803.649 198.501 800.244 198.501 796.045C198.501 791.845 195.098 788.441 190.897 788.441Z" fill="#FF4747"/>
</g>
</g>
<g opacity="0.25">
<g opacity="0.25">
<path opacity="0.25" d="M190.897 716.555H106.774C102.574 716.555 99.17 719.96 99.17 724.159C99.17 728.358 102.574 731.763 106.774 731.763H190.897C195.097 731.763 198.501 728.358 198.501 724.159C198.501 719.96 195.098 716.555 190.897 716.555Z" fill="#FF4747"/>
</g>
</g>
<g opacity="0.25">
<g opacity="0.25">
<path opacity="0.25" d="M190.897 608.725H106.774C102.574 608.725 99.17 612.13 99.17 616.329C99.17 620.528 102.574 623.933 106.774 623.933H190.897C195.097 623.933 198.501 620.528 198.501 616.329C198.501 612.13 195.098 608.725 190.897 608.725Z" fill="#FF4747"/>
</g>
</g>
<g opacity="0.25">
<g opacity="0.25">
<path opacity="0.25" d="M190.897 680.611H106.774C102.574 680.611 99.17 684.016 99.17 688.215C99.17 692.414 102.574 695.819 106.774 695.819H190.897C195.097 695.819 198.501 692.414 198.501 688.215C198.501 684.016 195.098 680.611 190.897 680.611Z" fill="#FF4747"/>
</g>
</g>
<g opacity="0.25">
<g opacity="0.25">
<path opacity="0.25" d="M190.897 644.669H106.774C102.574 644.669 99.17 648.074 99.17 652.273C99.17 656.472 102.574 659.877 106.774 659.877H190.897C195.097 659.877 198.501 656.472 198.501 652.273C198.501 648.074 195.098 644.669 190.897 644.669Z" fill="#FF4747"/>
</g>
</g>
<g opacity="0.25">
<g opacity="0.25">
<path opacity="0.25" d="M250.544 742.643C246.344 742.643 242.94 746.048 242.94 750.247V771.767C242.94 775.966 246.344 779.371 250.544 779.371C254.744 779.371 258.148 775.966 258.148 771.767V750.247C258.148 746.048 254.744 742.643 250.544 742.643Z" fill="#FF4747"/>
</g>
</g>
<g opacity="0.25">
<g opacity="0.25">
<path opacity="0.25" d="M228.251 470.435H135.488C131.288 470.435 127.884 473.84 127.884 478.039C127.884 482.238 131.288 485.643 135.488 485.643H228.251C232.451 485.643 235.855 482.238 235.855 478.039C235.855 473.84 232.451 470.435 228.251 470.435Z" fill="#FF4747"/>
</g>
</g>
<g opacity="0.25">
<g opacity="0.25">
<path opacity="0.25" d="M257.145 502.37H190.233C186.033 502.37 182.629 505.775 182.629 509.974C182.629 514.173 186.033 517.578 190.233 517.578H257.145C261.345 517.578 264.749 514.173 264.749 509.974C264.749 505.775 261.345 502.37 257.145 502.37Z" fill="#FF4747"/>
</g>
</g>
</g>
<path opacity="0.25" d="M829.261 897.764H900.012" stroke="#FF4747" stroke-width="15.1181" stroke-linecap="round" stroke-linejoin="round"/>
<path opacity="0.25" d="M1297.86 840.639H1316.37" stroke="#FF4747" stroke-width="15.1181" stroke-linecap="round" stroke-linejoin="round"/>
<path opacity="0.25" d="M1602.2 928.547H1995.55" stroke="#FF4747" stroke-width="15.1181" stroke-linecap="round" stroke-linejoin="round"/>
<path opacity="0.25" d="M2598.32 845.99H2733.41" stroke="#FF4747" stroke-width="15.1181" stroke-linecap="round" stroke-linejoin="round"/>
<g opacity="0.25">
<g opacity="0.25">
<g opacity="0.25">
<path opacity="0.25" d="M2423.27 684.616H2414.74V627.986C2414.74 623.844 2411.38 620.486 2407.24 620.486H2318.55V547.825C2318.55 543.683 2315.19 540.325 2311.05 540.325H2270.45V515.761C2270.45 511.619 2267.09 508.261 2262.95 508.261H2190.29V435.6C2190.29 431.458 2186.93 428.1 2182.79 428.1H2173.55C2170.5 412.287 2158.01 399.803 2142.19 396.756V355.438C2142.19 351.296 2138.84 347.938 2134.69 347.938C2130.55 347.938 2127.19 351.296 2127.19 355.438V396.755C2111.38 399.802 2098.89 412.286 2095.84 428.099H2086.6C2082.46 428.099 2079.1 431.457 2079.1 435.599V492.228H2022.47C2018.33 492.228 2014.97 495.586 2014.97 499.728V556.357H1942.31C1938.16 556.357 1934.81 559.715 1934.81 563.857V684.615H1926.27C1922.13 684.615 1918.77 687.973 1918.77 692.115C1918.77 696.257 1922.13 699.615 1926.27 699.615H2423.27C2427.42 699.615 2430.77 696.257 2430.77 692.115C2430.77 687.973 2427.42 684.616 2423.27 684.616ZM2029.97 507.228H2111.16V524.292H2029.97V507.228ZM2063.06 684.616H2046V676.084C2046 671.942 2042.64 668.584 2038.5 668.584C2034.36 668.584 2031 671.942 2031 676.084V684.616H2013.94V676.084C2013.94 671.942 2010.58 668.584 2006.44 668.584C2002.29 668.584 1998.94 671.942 1998.94 676.084V684.616H1981.87V676.084C1981.87 671.942 1978.51 668.584 1974.37 668.584C1970.23 668.584 1966.87 671.942 1966.87 676.084V684.616H1949.81V571.358H2063.06V684.616ZM2029.97 556.356V539.292H2111.16V556.356H2070.56H2029.97ZM2095.13 684.616H2078.07V667.551H2095.13V684.616ZM2095.13 652.55H2078.07V635.486H2095.13V652.55ZM2095.13 620.486H2078.07V603.422H2095.13V620.486ZM2078.07 588.421V571.357H2111.16V588.421H2102.63H2078.07ZM2255.45 540.324H2230.89C2226.74 540.324 2223.39 543.682 2223.39 547.824C2223.39 551.966 2226.74 555.324 2230.89 555.324H2255.45V572.388H2230.89C2226.74 572.388 2223.39 575.746 2223.39 579.888C2223.39 584.03 2226.74 587.388 2230.89 587.388H2255.45V604.452H2230.89C2226.74 604.452 2223.39 607.81 2223.39 611.952C2223.39 616.094 2226.74 619.452 2230.89 619.452H2255.45V636.516H2230.89C2226.74 636.516 2223.39 639.874 2223.39 644.016C2223.39 648.158 2226.74 651.516 2230.89 651.516H2255.45V684.613H2206.32V676.081C2206.32 671.939 2202.96 668.581 2198.82 668.581C2194.68 668.581 2191.32 671.939 2191.32 676.081V684.613H2174.26V668.066C2174.26 663.924 2170.9 660.566 2166.76 660.566C2162.62 660.566 2159.26 663.924 2159.26 668.066V684.615H2142.19V668.066C2142.19 663.924 2138.84 660.566 2134.69 660.566C2130.55 660.566 2127.19 663.924 2127.19 668.066V684.615H2110.13V603.421H2191.32V644.018C2191.32 648.16 2194.68 651.518 2198.82 651.518C2202.96 651.518 2206.32 648.16 2206.32 644.018V595.921C2206.32 591.779 2202.96 588.421 2198.82 588.421H2190.29V563.858C2190.29 559.716 2186.93 556.358 2182.79 556.358C2178.65 556.358 2175.29 559.716 2175.29 563.858V588.421H2126.16V499.728C2126.16 495.586 2122.8 492.228 2118.66 492.228H2094.1V443.099H2102.63C2106.77 443.099 2110.13 439.741 2110.13 435.599C2110.13 422.054 2121.15 411.034 2134.69 411.034C2148.24 411.034 2159.26 422.054 2159.26 435.599C2159.26 439.741 2162.62 443.099 2166.76 443.099H2175.29V531.794C2175.29 535.936 2178.65 539.294 2182.79 539.294C2186.93 539.294 2190.29 535.936 2190.29 531.794V523.26H2255.45V540.324ZM2287.52 627.986V684.615H2270.45V555.325H2303.55V620.486H2295.02C2290.87 620.486 2287.52 623.844 2287.52 627.986V627.986ZM2399.74 684.616H2374.66V660.052C2374.66 655.91 2371.3 652.552 2367.16 652.552C2363.02 652.552 2359.66 655.91 2359.66 660.052V684.616H2342.6V660.052C2342.6 655.91 2339.24 652.552 2335.1 652.552C2330.96 652.552 2327.6 655.91 2327.6 660.052V684.616H2302.52V635.486H2399.74V684.616Z" fill="#FF4747"/>
</g>
</g>
<g opacity="0.25">
<g opacity="0.25">
<path opacity="0.25" d="M2150.81 460.163H2150.73C2146.58 460.163 2143.27 463.521 2143.27 467.663C2143.27 471.805 2146.66 475.163 2150.81 475.163C2154.95 475.163 2158.31 471.805 2158.31 467.663C2158.31 463.522 2154.95 460.163 2150.81 460.163V460.163Z" fill="#FF4747"/>
</g>
</g>
<g opacity="0.25">
<g opacity="0.25">
<path opacity="0.25" d="M2150.81 556.358H2150.73C2146.58 556.358 2143.27 559.716 2143.27 563.858C2143.27 568 2146.66 571.358 2150.81 571.358C2154.95 571.358 2158.31 568 2158.31 563.858C2158.31 559.715 2154.95 556.358 2150.81 556.358V556.358Z" fill="#FF4747"/>
</g>
</g>
<g opacity="0.25">
<g opacity="0.25">
<path opacity="0.25" d="M2150.81 524.293H2150.73C2146.58 524.293 2143.27 527.651 2143.27 531.793C2143.27 535.935 2146.66 539.293 2150.81 539.293C2154.95 539.293 2158.31 535.935 2158.31 531.793C2158.31 527.65 2154.95 524.293 2150.81 524.293V524.293Z" fill="#FF4747"/>
</g>
</g>
<g opacity="0.25">
<g opacity="0.25">
<path opacity="0.25" d="M2150.81 492.228H2150.73C2146.58 492.228 2143.27 495.586 2143.27 499.728C2143.27 503.87 2146.66 507.228 2150.81 507.228C2154.95 507.228 2158.31 503.87 2158.31 499.728C2158.31 495.587 2154.95 492.228 2150.81 492.228V492.228Z" fill="#FF4747"/>
</g>
</g>
<g opacity="0.25">
<g opacity="0.25">
<path opacity="0.25" d="M2118.74 460.163H2118.66C2114.52 460.163 2111.2 463.521 2111.2 467.663C2111.2 471.805 2114.6 475.163 2118.74 475.163C2122.88 475.163 2126.24 471.805 2126.24 467.663C2126.24 463.522 2122.88 460.163 2118.74 460.163V460.163Z" fill="#FF4747"/>
</g>
</g>
<g opacity="0.25">
<g opacity="0.25">
<path opacity="0.25" d="M1974.37 628.503C1970.23 628.503 1966.87 631.861 1966.87 636.003V644.019C1966.87 648.161 1970.23 651.519 1974.37 651.519C1978.51 651.519 1981.87 648.161 1981.87 644.019V636.003C1981.87 631.861 1978.51 628.503 1974.37 628.503Z" fill="#FF4747"/>
</g>
</g>
<g opacity="0.25">
<g opacity="0.25">
<path opacity="0.25" d="M2006.44 628.503C2002.29 628.503 1998.94 631.861 1998.94 636.003V644.019C1998.94 648.161 2002.29 651.519 2006.44 651.519C2010.58 651.519 2013.94 648.161 2013.94 644.019V636.003C2013.94 631.861 2010.58 628.503 2006.44 628.503Z" fill="#FF4747"/>
</g>
</g>
<g opacity="0.25">
<g opacity="0.25">
<path opacity="0.25" d="M2038.5 628.503C2034.36 628.503 2031 631.861 2031 636.003V644.019C2031 648.161 2034.36 651.519 2038.5 651.519C2042.64 651.519 2046 648.161 2046 644.019V636.003C2046 631.861 2042.64 628.503 2038.5 628.503Z" fill="#FF4747"/>
</g>
</g>
<g opacity="0.25">
<g opacity="0.25">
<path opacity="0.25" d="M1974.37 588.422C1970.23 588.422 1966.87 591.78 1966.87 595.922V603.938C1966.87 608.08 1970.23 611.438 1974.37 611.438C1978.51 611.438 1981.87 608.08 1981.87 603.938V595.922C1981.87 591.78 1978.51 588.422 1974.37 588.422Z" fill="#FF4747"/>
</g>
</g>
<g opacity="0.25">
<g opacity="0.25">
<path opacity="0.25" d="M2006.44 588.422C2002.29 588.422 1998.94 591.78 1998.94 595.922V603.938C1998.94 608.08 2002.29 611.438 2006.44 611.438C2010.58 611.438 2013.94 608.08 2013.94 603.938V595.922C2013.94 591.78 2010.58 588.422 2006.44 588.422Z" fill="#FF4747"/>
</g>
</g>
<g opacity="0.25">
<g opacity="0.25">
<path opacity="0.25" d="M2038.5 588.422C2034.36 588.422 2031 591.78 2031 595.922V603.938C2031 608.08 2034.36 611.438 2038.5 611.438C2042.64 611.438 2046 608.08 2046 603.938V595.922C2046 591.78 2042.64 588.422 2038.5 588.422Z" fill="#FF4747"/>
</g>
</g>
<g opacity="0.25">
<g opacity="0.25">
<path opacity="0.25" d="M2134.69 620.486C2130.55 620.486 2127.19 623.844 2127.19 627.986V636.002C2127.19 640.144 2130.55 643.502 2134.69 643.502C2138.84 643.502 2142.19 640.144 2142.19 636.002V627.986C2142.19 623.843 2138.84 620.486 2134.69 620.486Z" fill="#FF4747"/>
</g>
</g>
<g opacity="0.25">
<g opacity="0.25">
<path opacity="0.25" d="M2166.76 620.486C2162.62 620.486 2159.26 623.844 2159.26 627.986V636.002C2159.26 640.144 2162.62 643.502 2166.76 643.502C2170.9 643.502 2174.26 640.144 2174.26 636.002V627.986C2174.26 623.843 2170.9 620.486 2166.76 620.486Z" fill="#FF4747"/>
</g>
</g>
</g>
<path opacity="0.25" d="M2118.32 794.562H2253.41" stroke="#FF4747" stroke-width="15.1181" stroke-linecap="round" stroke-linejoin="round"/>
<path opacity="0.25" d="M2518.33 692.056H2557.97" stroke="#FF4747" stroke-width="15.1181" stroke-linecap="round" stroke-linejoin="round"/>
<path opacity="0.25" d="M2733.09 692.056H2868.18" stroke="#FF4747" stroke-width="15.1181" stroke-linecap="round" stroke-linejoin="round"/>
<path opacity="0.25" d="M2244.36 437.181L2361.76 328.871L2539.46 506.566" stroke="#FF4747" stroke-width="15.1181" stroke-linecap="round" stroke-linejoin="round"/>
<path opacity="0.25" d="M2759.15 412.923L2573.07 227.558L2417.96 385.089" stroke="#FF4747" stroke-width="15.1181" stroke-linecap="round" stroke-linejoin="round"/>
<path opacity="0.25" d="M2919.14 461.108L2772.45 316.432L2719.48 373.249" stroke="#FF4747" stroke-width="15.1181" stroke-linecap="round" stroke-linejoin="round"/>
<path opacity="0.25" d="M2859.16 276.433H2994.25" stroke="#FF4747" stroke-width="15.1181" stroke-linecap="round" stroke-linejoin="round"/>
<path opacity="0.25" d="M2119.16 243.576H2254.25" stroke="#FF4747" stroke-width="15.1181" stroke-linecap="round" stroke-linejoin="round"/>
<path opacity="0.25" d="M104.44 243.394H112.344C132.767 243.394 149.383 226.776 149.383 206.35C149.383 185.935 132.785 169.324 112.377 169.306C112.308 169.308 112.242 169.31 112.173 169.31H112.17C91.8272 169.404 75.3068 185.982 75.3068 206.349C75.3068 208.386 73.6561 210.037 71.6188 210.037C69.5814 210.037 67.9307 208.386 67.9307 206.349C67.9307 183.103 85.8792 163.972 108.644 162.085C108.647 161.905 108.644 161.722 108.644 161.544C108.644 154.588 106.877 147.717 103.534 141.673C102.548 139.89 103.195 137.647 104.977 136.661C106.76 135.676 109.003 136.322 109.989 138.103C113.934 145.237 116.02 153.343 116.02 161.543C116.02 161.722 116.019 161.901 116.017 162.08C138.791 163.96 156.747 183.097 156.747 206.349C156.747 230.843 136.823 250.77 112.333 250.77H104.429C102.391 250.77 100.741 249.118 100.741 247.082C100.741 245.045 102.391 243.394 104.429 243.394L104.44 243.394Z" fill="#FF4747"/>
<path opacity="0.25" d="M-60.4342 178.263C-55.4511 163.714 -41.7307 153.782 -26.125 153.782C-20.0183 153.782 -14.1051 155.294 -8.80888 158.183C-3.64207 150.452 5.16083 145.636 14.6015 145.636C16.9316 145.636 19.2228 145.918 21.4504 146.478C24.3696 137.572 29.8844 129.581 37.2564 123.676C45.8091 116.824 56.5652 113.05 67.5456 113.05C79.5625 113.05 91.0915 117.48 100.009 125.523C101.521 126.887 101.641 129.219 100.278 130.732C98.9126 132.245 96.581 132.363 95.0687 131C87.5094 124.182 77.7352 120.426 67.5466 120.426C49.3862 120.426 33.6606 132.122 28.3272 149.203C37.0575 154.08 42.7257 163.387 42.7257 173.764C42.7257 175.801 41.075 177.452 39.0376 177.452C37.0007 177.452 35.3495 175.801 35.3495 173.764C35.3495 165.285 30.2212 157.776 22.5778 154.602C22.5778 154.598 22.5778 154.606 22.5778 154.602C20.0562 153.556 17.348 153.013 14.6015 153.013C6.61921 153.013 -0.744975 157.681 -4.16188 164.905C-4.6261 165.887 -5.5003 166.614 -6.54918 166.893C-7.59887 167.171 -8.71743 166.974 -9.6083 166.352C-14.4726 162.954 -20.1831 161.159 -26.124 161.159C-39.327 161.159 -50.8351 170.079 -54.1116 182.852C-54.5399 184.525 -56.0525 185.671 -57.7987 185.622C-57.7987 185.622 -58.4833 185.598 -58.7038 185.598C-74.6357 185.598 -87.5975 198.561 -87.5975 214.496C-87.5975 230.43 -74.6357 243.394 -58.7038 243.394C-42.7726 243.394 -29.8121 230.43 -29.8121 214.496C-29.8121 212.459 -28.1613 210.808 -26.124 210.808C-24.0866 210.808 -22.4359 212.459 -22.4359 214.496C-22.4359 226.279 -28.0854 236.763 -36.8144 243.394H89.6871C91.7244 243.394 93.3762 245.045 93.3762 247.082C93.3762 249.118 91.7244 250.77 89.6871 250.77H-58.7038C-78.7026 250.77 -94.9727 234.498 -94.9727 214.496C-94.9735 195.074 -79.6318 179.169 -60.4332 178.262L-60.4342 178.263Z" fill="#FF4747"/>
<path opacity="0.25" d="M-1.97877 47.8789C-1.97877 47.8789 -1.93809 47.8799 -1.92992 47.8799C-1.8891 47.8799 -1.88066 47.8789 -1.85616 47.8789C22.6338 47.8789 42.5574 67.8056 42.5574 92.2996C42.5574 116.794 22.6334 136.72 -1.85616 136.72C-1.89699 136.72 -1.90543 136.719 -1.92992 136.719C-1.92992 136.719 -1.97051 136.719 -1.98275 136.719C-26.4764 136.719 -46.4033 116.793 -46.4033 92.2991C-46.4029 67.8056 -26.4756 47.8789 -1.98275 47.8789H-1.97877ZM18.7792 61.5513C18.6118 61.4749 18.4486 61.3896 18.2898 61.2859C13.0662 57.8643 7.10075 55.8442 0.88997 55.3672C0.800148 55.3591 -1.7876 55.2562 -1.906 55.2562C-22.3054 55.2848 -38.8916 71.8903 -38.8916 92.2993C-38.8916 112.703 -22.3126 129.306 -1.92095 129.342C18.4788 129.309 35.0656 112.706 35.0656 92.2993C35.0656 84.4202 32.6262 76.8997 28.0114 70.5488C27.8726 70.3573 27.7585 70.1564 27.6605 69.9499C25.1839 66.6872 22.1826 63.8435 18.7792 61.5515V61.5513Z" fill="#FF4747"/>
<path opacity="0.25" d="M-1.85488 38.9621C-3.8922 38.9621 -5.54297 37.3109 -5.54297 35.2741V2.68809C-5.54297 0.651297 -3.8922 -1 -1.85488 -1C0.182448 -1 1.83321 0.651297 1.83321 2.68809V35.2741C1.83321 37.3109 0.182448 38.9621 -1.85488 38.9621Z" fill="#FF4747"/>
<path opacity="0.25" d="M87.7563 95.9871H55.1705C53.1332 95.9871 51.4824 94.3358 51.4824 92.2991C51.4824 90.2623 53.1332 88.6111 55.1705 88.6111H87.7563C89.7936 88.6111 91.4444 90.2623 91.4444 92.2991C91.4444 94.3363 89.7932 95.9871 87.7563 95.9871Z" fill="#FF4747"/>
<path opacity="0.25" d="M41.0774 54.5841C40.3568 55.304 39.4124 55.6644 38.4689 55.6644C37.5249 55.6644 36.5809 55.3043 35.8603 54.5841C34.4203 53.1438 34.4203 50.8085 35.8603 49.3687L58.9029 26.3268C60.3437 24.8865 62.6776 24.8865 64.118 26.3268C65.5585 27.7671 65.5585 30.1024 64.118 31.5422L41.0774 54.5841Z" fill="#FF4747"/>
<path opacity="0.25" d="M23.3753 41.0261C22.7869 42.4463 21.415 43.3039 19.9673 43.3039C19.4969 43.3039 19.0178 43.2132 18.5568 43.0222C16.6746 42.2428 15.7814 40.085 16.5613 38.2036L22.7961 23.1511C23.5755 21.2692 25.7332 20.3748 27.6146 21.1551C29.4963 21.9346 30.3909 24.0922 29.6111 25.9736L23.3753 41.0261Z" fill="#FF4747"/>
<path opacity="0.25" d="M67.2942 67.6489L52.2408 73.8842C51.7795 74.0757 51.3017 74.1659 50.8314 74.1659C49.384 74.1659 48.0111 73.3083 47.4224 71.8881C46.6426 70.0063 47.5372 67.8491 49.4189 67.0697L64.4713 60.8344C66.3515 60.0551 68.5099 60.9483 69.2898 62.8304C70.0696 64.7118 69.176 66.869 67.2942 67.6489V67.6489Z" fill="#FF4747"/>
<g opacity="0.25">
<g opacity="0.25">
<path opacity="0.25" d="M443.237 81.7559C443.237 81.6362 443.237 81.5165 443.237 81.3968C443.228 73.5303 436.852 67.1552 428.986 67.146H428.843C427.28 51.4829 413.316 40.0519 397.653 41.6149C385.219 42.8554 375.043 52.0508 372.553 64.2958C365.567 64.0158 359.409 68.845 358.017 75.6965H357.732C349.861 75.6965 343.481 82.0769 343.481 89.9473C343.481 97.8177 349.861 104.198 357.732 104.198H440.387C446.683 104.204 451.792 99.1052 451.799 92.8089C451.804 87.6013 448.28 83.0524 443.237 81.7559ZM440.387 98.4978H357.732C353.009 98.4978 349.181 94.6697 349.181 89.9473C349.181 85.2249 353.009 81.3968 357.732 81.3968C358.469 81.4029 359.204 81.4983 359.918 81.6818C361.445 82.0641 362.992 81.136 363.375 79.609C363.464 79.2524 363.483 78.8819 363.432 78.5181C363.448 73.8068 367.271 69.9961 371.983 69.9961C372.729 69.9929 373.473 70.0888 374.194 70.2811C375.712 70.6976 377.28 69.8045 377.697 68.2864C377.74 68.1278 377.77 67.9654 377.786 67.8015C378.979 55.2654 390.109 46.0701 402.645 47.2632C414.361 48.3783 423.303 58.2271 423.286 69.9961V70.3667C423.285 71.9407 424.56 73.2175 426.135 73.2179C426.396 73.2179 426.657 73.1823 426.908 73.1114C427.585 72.9265 428.284 72.837 428.986 72.8463C433.708 72.8463 437.536 76.6744 437.536 81.3968C437.532 82.1343 437.436 82.8686 437.251 83.5829C436.869 85.1099 437.797 86.6575 439.324 87.0398C439.681 87.1292 440.051 87.1484 440.415 87.0971C443.563 87.105 446.109 89.6634 446.101 92.8117C446.093 95.9597 443.535 98.5056 440.387 98.4978V98.4978Z" fill="#FF4747"/>
</g>
</g>
<g opacity="0.25">
<g opacity="0.25">
<path opacity="0.25" d="M640.654 398.339H640.274C638.168 388.07 628.136 381.453 617.867 383.559C612.709 384.618 608.222 387.771 605.479 392.265C597.932 388.61 588.85 391.765 585.195 399.313C581.539 406.86 584.694 415.942 592.242 419.597C594.316 420.602 596.592 421.121 598.897 421.116H640.654C646.944 421.116 652.043 416.017 652.043 409.727C652.043 403.438 646.943 398.339 640.654 398.339V398.339ZM640.654 413.523H598.897C594.703 413.523 591.304 410.124 591.304 405.931C591.304 401.738 594.703 398.339 598.897 398.339C600.929 398.321 602.877 399.146 604.28 400.617C605.7 402.159 608.101 402.258 609.643 400.837C610.167 400.355 610.545 399.735 610.733 399.049C612.479 393.006 618.793 389.524 624.835 391.27C629.681 392.67 633.028 397.092 633.062 402.135C633.062 404.231 634.761 405.931 636.858 405.931H640.654C642.75 405.931 644.45 407.631 644.45 409.727C644.45 411.824 642.75 413.523 640.654 413.523Z" fill="#FF4747"/>
</g>
</g>
<g opacity="0.25" filter="url(#filter0_f)">
<g opacity="0.25">
<path opacity="0.25" d="M994.832 265.138C991.588 254.143 980.647 247.299 969.34 249.193C959.128 238.823 942.444 238.696 932.075 248.908C929.84 251.109 928.016 253.691 926.689 256.534C925.864 256.44 925.035 256.393 924.205 256.394C911.73 256.394 901.618 266.506 901.618 278.981C901.618 291.455 911.73 301.567 924.205 301.567H988.199C998.594 301.555 1007.01 293.118 1007 282.722C1006.99 274.902 1002.15 267.903 994.832 265.138ZM999.061 285.443C997.829 290.452 993.358 293.99 988.199 294.037H924.205C915.889 294.044 909.142 287.308 909.135 278.991C909.129 270.675 915.865 263.929 924.181 263.922C925.5 263.921 926.812 264.093 928.086 264.434C930.027 264.953 932.034 263.856 932.645 261.942C935.815 252.042 946.41 246.587 956.31 249.757C959.762 250.862 962.821 252.94 965.12 255.742C966.068 256.887 967.6 257.368 969.032 256.969C977.068 254.721 985.406 259.414 987.654 267.451C987.775 267.885 987.877 268.324 987.959 268.767C988.218 270.246 989.332 271.43 990.793 271.778C996.849 273.269 1000.55 279.387 999.061 285.443Z" fill="#FF4747"/>
</g>
</g>
<g opacity="0.25">
<g opacity="0.25">
<path opacity="0.25" d="M2091.81 77.7154C2091.81 77.5957 2091.81 77.476 2091.81 77.3563C2091.8 69.4898 2085.42 63.1147 2077.55 63.1054H2077.41C2075.85 47.4423 2061.88 36.0114 2046.22 37.5744C2033.79 38.8149 2023.61 48.0102 2021.12 60.2553C2014.14 59.9752 2007.98 64.8045 2006.59 71.6559H2006.3C1998.43 71.6559 1992.05 78.0364 1992.05 85.9068C1992.05 93.7771 1998.43 100.158 2006.3 100.158H2088.96C2095.25 100.164 2100.36 95.0647 2100.37 88.7683C2100.37 83.5607 2096.85 79.0119 2091.81 77.7154ZM2088.96 94.4573H2006.3C2001.58 94.4573 1997.75 90.6291 1997.75 85.9068C1997.75 81.1844 2001.58 77.3563 2006.3 77.3563C2007.04 77.3623 2007.77 77.4578 2008.49 77.6413C2010.01 78.0236 2011.56 77.0955 2011.94 75.5685C2012.03 75.2119 2012.05 74.8414 2012 74.4776C2012.02 69.7663 2015.84 65.9556 2020.55 65.9556C2021.3 65.9524 2022.04 66.0482 2022.76 66.2406C2024.28 66.6571 2025.85 65.7639 2026.27 64.2459C2026.31 64.0873 2026.34 63.9249 2026.35 63.761C2027.55 51.2249 2038.68 42.0295 2051.21 43.2227C2062.93 44.3378 2071.87 54.1866 2071.85 65.9556V66.3261C2071.85 67.9001 2073.13 69.177 2074.7 69.1774C2074.97 69.1774 2075.23 69.1417 2075.48 69.0708C2076.15 68.8859 2076.85 68.7965 2077.55 68.8058C2082.28 68.8058 2086.11 72.6339 2086.11 77.3563C2086.1 78.0937 2086.01 78.828 2085.82 79.5423C2085.44 81.0693 2086.37 82.617 2087.89 82.9992C2088.25 83.0887 2088.62 83.1079 2088.98 83.0566C2092.13 83.0644 2094.68 85.6228 2094.67 88.7712C2094.66 91.9192 2092.1 94.4651 2088.96 94.4573V94.4573Z" fill="#FF4747"/>
</g>
</g>
<g opacity="0.25" filter="url(#filter1_f)">
<g opacity="0.25">
<path opacity="0.25" d="M1881.7 279.083C1877.15 263.654 1861.8 254.05 1845.93 256.708C1831.6 242.158 1808.19 241.979 1793.64 256.308C1790.51 259.396 1787.95 263.02 1786.09 267.008C1784.93 266.877 1783.76 266.812 1782.6 266.813C1765.1 266.813 1750.91 281.002 1750.91 298.506C1750.91 316.009 1765.1 330.198 1782.6 330.198H1872.4C1886.98 330.181 1898.79 318.343 1898.77 303.756C1898.76 292.783 1891.97 282.962 1881.7 279.083ZM1887.64 307.573C1885.91 314.602 1879.63 319.566 1872.4 319.633H1782.6C1770.93 319.642 1761.46 310.19 1761.45 298.521C1761.45 286.852 1770.9 277.385 1782.57 277.376C1784.42 277.375 1786.26 277.616 1788.05 278.094C1790.77 278.823 1793.59 277.283 1794.44 274.597C1798.89 260.706 1813.76 253.051 1827.65 257.499C1832.49 259.05 1836.79 261.967 1840.01 265.898C1841.34 267.505 1843.49 268.18 1845.5 267.62C1856.78 264.466 1868.48 271.051 1871.63 282.327C1871.8 282.936 1871.94 283.552 1872.06 284.174C1872.42 286.25 1873.99 287.91 1876.04 288.4C1884.53 290.491 1889.73 299.076 1887.64 307.573Z" fill="#FF4747"/>
</g>
</g>
<g opacity="0.25">
<g opacity="0.25">
<path opacity="0.25" d="M1575.07 98.3388H1575.45C1577.55 88.0698 1587.59 81.4527 1597.85 83.5591C1603.01 84.6173 1607.5 87.7704 1610.24 92.265C1617.79 88.6098 1626.87 91.7648 1630.53 99.3125C1634.18 106.86 1631.03 115.942 1623.48 119.597C1621.41 120.601 1619.13 121.121 1616.82 121.115H1575.07C1568.78 121.115 1563.68 116.017 1563.68 109.727C1563.68 103.437 1568.78 98.3388 1575.07 98.3388V98.3388ZM1575.07 113.523H1616.83C1621.02 113.523 1624.42 110.124 1624.42 105.931C1624.42 101.738 1621.02 98.3388 1616.83 98.3388C1614.79 98.3207 1612.84 99.1454 1611.44 100.616C1610.02 102.159 1607.62 102.257 1606.08 100.837C1605.55 100.355 1605.18 99.7352 1604.99 99.0486C1603.24 93.0062 1596.93 89.5237 1590.89 91.2699C1586.04 92.6702 1582.69 97.0913 1582.66 102.135C1582.66 104.231 1580.96 105.931 1578.86 105.931H1575.07C1572.97 105.931 1571.27 107.631 1571.27 109.727C1571.27 111.823 1572.97 113.523 1575.07 113.523Z" fill="#FF4747"/>
</g>
</g>
<path opacity="0.25" d="M2573.07 227.559V57.3286" stroke="#0F3559" stroke-width="11.3386" stroke-linecap="round" stroke-linejoin="round"/>
<path opacity="0.5" d="M2698.56 108.323H2575.19V70.0578C2575.19 68.8711 2576.15 67.9089 2577.34 67.9089H2696.41C2697.6 67.9089 2698.56 68.8711 2698.56 70.0578V108.323Z" fill="#C8414B"/>
<path opacity="0.5" d="M2575.19 108.323H2698.56V146.588C2698.56 147.775 2697.6 148.737 2696.41 148.737H2577.34C2576.15 148.737 2575.19 147.775 2575.19 146.588V108.323Z" fill="#F5F5F5"/>
<path opacity="0.25" d="M862.881 205.625V137.375H883.881C889.881 137.375 895.24 138.735 899.959 141.454C904.709 144.141 908.412 147.985 911.068 152.985C913.725 157.954 915.053 163.61 915.053 169.954V173.094C915.053 179.438 913.74 185.079 911.115 190.016C908.521 194.954 904.85 198.782 900.1 201.5C895.35 204.219 889.99 205.594 884.021 205.625H862.881ZM876.943 148.766V194.329H883.74C889.24 194.329 893.443 192.532 896.35 188.938C899.256 185.344 900.74 180.204 900.803 173.516V169.907C900.803 162.969 899.365 157.719 896.49 154.157C893.615 150.563 889.412 148.766 883.881 148.766H876.943ZM962.818 191.563H938.162L933.475 205.625H918.521L943.928 137.375H956.959L982.506 205.625H967.553L962.818 191.563ZM941.959 180.172H959.021L950.443 154.625L941.959 180.172ZM1014.15 180.641H1002.94V205.625H988.881V137.375H1014.24C1022.3 137.375 1028.52 139.172 1032.9 142.766C1037.27 146.36 1039.46 151.438 1039.46 158C1039.46 162.657 1038.44 166.547 1036.41 169.672C1034.41 172.766 1031.37 175.235 1027.27 177.079L1042.04 204.969V205.625H1026.94L1014.15 180.641ZM1002.94 169.25H1014.29C1017.82 169.25 1020.55 168.36 1022.49 166.579C1024.43 164.766 1025.4 162.282 1025.4 159.125C1025.4 155.907 1024.47 153.375 1022.63 151.532C1020.82 149.688 1018.02 148.766 1014.24 148.766H1002.94V169.25ZM1091.26 176.047H1064.26V194.329H1095.94V205.625H1050.19V137.375H1095.85V148.766H1064.26V165.032H1091.26V176.047ZM1176.66 148.766H1155.76V205.625H1141.69V148.766H1121.07V137.375H1176.66V148.766ZM1239.47 173.047C1239.47 179.766 1238.29 185.657 1235.91 190.719C1233.54 195.782 1230.13 199.688 1225.69 202.438C1221.29 205.188 1216.22 206.563 1210.51 206.563C1204.85 206.563 1199.8 205.204 1195.37 202.485C1190.93 199.766 1187.49 195.891 1185.05 190.86C1182.62 185.797 1181.38 179.985 1181.35 173.422V170.047C1181.35 163.329 1182.55 157.422 1184.96 152.329C1187.4 147.204 1190.82 143.282 1195.22 140.563C1199.66 137.813 1204.72 136.438 1210.41 136.438C1216.1 136.438 1221.15 137.813 1225.55 140.563C1229.99 143.282 1233.41 147.204 1235.82 152.329C1238.26 157.422 1239.47 163.313 1239.47 170V173.047ZM1225.22 169.954C1225.22 162.797 1223.94 157.36 1221.38 153.641C1218.82 149.922 1215.16 148.063 1210.41 148.063C1205.69 148.063 1202.05 149.907 1199.49 153.594C1196.93 157.25 1195.63 162.625 1195.6 169.719V173.047C1195.6 180.016 1196.88 185.422 1199.44 189.266C1202.01 193.11 1205.69 195.032 1210.51 195.032C1215.22 195.032 1218.85 193.188 1221.38 189.5C1223.91 185.782 1225.19 180.375 1225.22 173.282V169.954ZM1273.6 205.625V137.375H1297.51C1305.79 137.375 1312.07 138.969 1316.35 142.157C1320.63 145.313 1322.77 149.954 1322.77 156.079C1322.77 159.422 1321.91 162.375 1320.19 164.938C1318.47 167.469 1316.08 169.329 1313.02 170.516C1316.52 171.391 1319.27 173.157 1321.27 175.813C1323.3 178.469 1324.32 181.719 1324.32 185.563C1324.32 192.125 1322.22 197.094 1318.04 200.469C1313.85 203.844 1307.88 205.563 1300.13 205.625H1273.6ZM1287.66 175.907V194.329H1299.71C1303.02 194.329 1305.6 193.547 1307.44 191.985C1309.32 190.391 1310.26 188.204 1310.26 185.422C1310.26 179.172 1307.02 176 1300.55 175.907H1287.66ZM1287.66 165.969H1298.07C1305.16 165.844 1308.71 163.016 1308.71 157.485C1308.71 154.391 1307.8 152.172 1305.99 150.829C1304.21 149.454 1301.38 148.766 1297.51 148.766H1287.66V165.969ZM1375.97 176.047H1348.97V194.329H1380.66V205.625H1334.91V137.375H1380.57V148.766H1348.97V165.032H1375.97V176.047ZM1468.88 173.047C1468.88 179.766 1467.69 185.657 1465.32 190.719C1462.94 195.782 1459.54 199.688 1455.1 202.438C1450.69 205.188 1445.63 206.563 1439.91 206.563C1434.26 206.563 1429.21 205.204 1424.77 202.485C1420.33 199.766 1416.9 195.891 1414.46 190.86C1412.02 185.797 1410.79 179.985 1410.76 173.422V170.047C1410.76 163.329 1411.96 157.422 1414.37 152.329C1416.8 147.204 1420.22 143.282 1424.63 140.563C1429.07 137.813 1434.13 136.438 1439.82 136.438C1445.51 136.438 1450.55 137.813 1454.96 140.563C1459.4 143.282 1462.82 147.204 1465.22 152.329C1467.66 157.422 1468.88 163.313 1468.88 170V173.047ZM1454.63 169.954C1454.63 162.797 1453.35 157.36 1450.79 153.641C1448.22 149.922 1444.57 148.063 1439.82 148.063C1435.1 148.063 1431.46 149.907 1428.9 153.594C1426.33 157.25 1425.04 162.625 1425.01 169.719V173.047C1425.01 180.016 1426.29 185.422 1428.85 189.266C1431.41 193.11 1435.1 195.032 1439.91 195.032C1444.63 195.032 1448.26 193.188 1450.79 189.5C1453.32 185.782 1454.6 180.375 1454.63 173.282V169.954ZM1530.76 137.375V182.329C1530.76 189.797 1528.41 195.704 1523.72 200.047C1519.07 204.391 1512.69 206.563 1504.6 206.563C1496.63 206.563 1490.3 204.454 1485.62 200.235C1480.93 196.016 1478.54 190.219 1478.44 182.844V137.375H1492.51V182.422C1492.51 186.891 1493.57 190.157 1495.69 192.219C1497.85 194.25 1500.82 195.266 1504.6 195.266C1512.51 195.266 1516.52 191.11 1516.65 182.797V137.375H1530.76ZM1593.66 148.766H1572.76V205.625H1558.69V148.766H1538.07V137.375H1593.66V148.766ZM1636.37 187.719C1636.37 185.063 1635.43 183.032 1633.55 181.625C1631.68 180.188 1628.3 178.688 1623.43 177.125C1618.55 175.532 1614.69 173.969 1611.85 172.438C1604.1 168.25 1600.22 162.61 1600.22 155.516C1600.22 151.829 1601.26 148.547 1603.32 145.672C1605.41 142.766 1608.4 140.5 1612.27 138.875C1616.18 137.25 1620.55 136.438 1625.4 136.438C1630.27 136.438 1634.62 137.329 1638.43 139.11C1642.24 140.86 1645.19 143.344 1647.29 146.563C1649.41 149.782 1650.47 153.438 1650.47 157.532H1636.41C1636.41 154.407 1635.43 151.985 1633.46 150.266C1631.49 148.516 1628.72 147.641 1625.16 147.641C1621.72 147.641 1619.05 148.375 1617.15 149.844C1615.24 151.282 1614.29 153.188 1614.29 155.563C1614.29 157.782 1615.4 159.641 1617.62 161.141C1619.87 162.641 1623.16 164.047 1627.51 165.36C1635.51 167.766 1641.33 170.75 1644.99 174.313C1648.65 177.875 1650.47 182.313 1650.47 187.625C1650.47 193.532 1648.24 198.172 1643.77 201.547C1639.3 204.891 1633.29 206.563 1625.72 206.563C1620.47 206.563 1615.69 205.61 1611.38 203.704C1607.07 201.766 1603.77 199.125 1601.49 195.782C1599.24 192.438 1598.12 188.563 1598.12 184.157H1612.22C1612.22 191.688 1616.72 195.454 1625.72 195.454C1629.07 195.454 1631.68 194.782 1633.55 193.438C1635.43 192.063 1636.37 190.157 1636.37 187.719ZM1711.41 148.766H1690.51V205.625H1676.44V148.766H1655.82V137.375H1711.41V148.766ZM1752.38 191.563H1727.72L1723.04 205.625H1708.08L1733.49 137.375H1746.52L1772.07 205.625H1757.12L1752.38 191.563ZM1731.52 180.172H1748.58L1740.01 154.625L1731.52 180.172ZM1833.94 205.625H1819.88L1792.51 160.719V205.625H1778.44V137.375H1792.51L1819.93 182.375V137.375H1833.94V205.625ZM1846.22 205.625V137.375H1867.22C1873.22 137.375 1878.58 138.735 1883.3 141.454C1888.05 144.141 1891.76 147.985 1894.41 152.985C1897.07 157.954 1898.4 163.61 1898.4 169.954V173.094C1898.4 179.438 1897.08 185.079 1894.46 190.016C1891.87 194.954 1888.19 198.782 1883.44 201.5C1878.69 204.219 1873.33 205.594 1867.37 205.625H1846.22ZM1860.29 148.766V194.329H1867.08C1872.58 194.329 1876.79 192.532 1879.69 188.938C1882.6 185.344 1884.08 180.204 1884.15 173.516V169.907C1884.15 162.969 1882.71 157.719 1879.83 154.157C1876.96 150.563 1872.76 148.766 1867.22 148.766H1860.29ZM1923.62 205.625H1909.55V137.375H1923.62V205.625ZM1992.19 205.625H1978.13L1950.76 160.719V205.625H1936.69V137.375H1950.76L1978.18 182.375V137.375H1992.19V205.625ZM2058.47 197C2055.94 200.032 2052.37 202.391 2047.74 204.079C2043.12 205.735 2037.99 206.563 2032.37 206.563C2026.46 206.563 2021.27 205.282 2016.8 202.719C2012.37 200.125 2008.93 196.375 2006.49 191.469C2004.08 186.563 2002.85 180.797 2002.79 174.172V169.532C2002.79 162.719 2003.93 156.829 2006.21 151.86C2008.52 146.86 2011.83 143.047 2016.15 140.422C2020.49 137.766 2025.57 136.438 2031.38 136.438C2039.47 136.438 2045.8 138.375 2050.37 142.25C2054.93 146.094 2057.63 151.704 2058.47 159.079H2044.79C2044.16 155.172 2042.77 152.313 2040.62 150.5C2038.49 148.688 2035.55 147.782 2031.8 147.782C2027.02 147.782 2023.38 149.579 2020.88 153.172C2018.38 156.766 2017.12 162.11 2017.08 169.204V173.563C2017.08 180.719 2018.44 186.125 2021.16 189.782C2023.88 193.438 2027.87 195.266 2033.12 195.266C2038.4 195.266 2042.16 194.141 2044.41 191.891V180.125H2031.62V169.766H2058.47V197Z" fill="#FF4747"/>
</g>
<defs>
<filter id="filter0_f" x="901.618" y="241.332" width="105.381" height="60.2355" filterUnits="userSpaceOnUse" color-interpolation-filters="sRGB">
<feFlood flood-opacity="0" result="BackgroundImageFix"/>
<feBlend mode="normal" in="SourceGraphic" in2="BackgroundImageFix" result="shape"/>
<feGaussianBlur stdDeviation="2.41811e-06" result="effect1_foregroundBlur"/>
</filter>
<filter id="filter1_f" x="1750.91" y="245.677" width="147.868" height="84.5212" filterUnits="userSpaceOnUse" color-interpolation-filters="sRGB">
<feFlood flood-opacity="0" result="BackgroundImageFix"/>
<feBlend mode="normal" in="SourceGraphic" in2="BackgroundImageFix" result="shape"/>
<feGaussianBlur stdDeviation="3.39304e-06" result="effect1_foregroundBlur"/>
</filter>
<clipPath id="clip0">
<rect width="3007" height="1255" fill="white"/>
</clipPath>
</defs>
</svg>
