<svg width="74" height="74" viewBox="0 0 74 74" fill="none" xmlns="http://www.w3.org/2000/svg">
<path d="M36.8439 6.6377C46.6817 6.6377 47.8458 6.63764 51.7304 6.85685C55.3217 7.03827 57.2745 7.61794 58.5716 8.12515C60.292 8.79526 61.5193 9.59179 62.807 10.8814C64.0928 12.1672 64.8955 13.3967 65.5641 15.1172C66.0709 16.4211 66.6685 18.3666 66.831 21.9579C67.0124 25.8425 67.0506 27.007 67.0506 36.8444C67.0506 46.6806 67.0502 47.8464 66.831 51.7295C66.6534 55.3227 66.0709 57.273 65.5641 58.5721C64.894 60.2921 64.0965 61.518 62.807 62.806C61.5215 64.0915 60.2902 64.8941 58.5716 65.5627C57.2677 66.0696 55.3217 66.6671 51.7304 66.8296C47.8458 67.0111 46.6817 67.0492 36.8439 67.0492C27.0081 67.0492 25.842 67.0488 21.9593 66.8296C18.368 66.6482 16.4173 66.0696 15.1172 65.5627C13.3967 64.8922 12.1719 64.0952 10.8828 62.806C9.59696 61.5199 8.79476 60.2902 8.12654 58.5721C7.61933 57.2678 7.0216 55.3227 6.8587 51.7314C6.67728 47.8464 6.63909 46.6806 6.63909 36.8444C6.63909 27.007 6.63949 25.8425 6.8587 21.9579C7.04012 18.3666 7.61933 16.4158 8.12654 15.1172C8.79627 13.3967 9.59318 12.1709 10.8828 10.8814C12.1685 9.59519 13.3983 8.793 15.1172 8.12515C16.4211 7.61794 18.368 7.02013 21.9593 6.85685C25.8443 6.67544 27.0081 6.6377 36.8439 6.6377ZM36.8439 0C26.8399 0 25.5847 0.000398628 21.6566 0.219611C17.7357 0.401029 15.0571 1.01634 12.7135 1.94005C10.2919 2.88153 8.23637 4.14029 6.18787 6.18879C4.14012 8.23692 2.88107 10.2924 1.93959 12.7139C1.03402 15.0572 0.400106 17.7362 0.218689 21.6571C0.0372712 25.5851 1.18696e-08 26.8399 1.18696e-08 36.8462C1.18696e-08 46.8503 -0.000524094 48.1051 0.218689 52.0336C0.400106 55.956 1.01588 58.6326 1.93959 60.9763C2.88107 63.3993 4.14012 65.4533 6.18787 67.5018C8.23637 69.55 10.2919 70.8086 12.7135 71.7501C15.0571 72.6561 17.7357 73.29 21.6566 73.471C25.5847 73.6524 26.8399 73.6865 36.8439 73.6865C46.8502 73.6865 48.1031 73.6865 52.0331 73.471C55.954 73.2896 58.6326 72.6738 60.9763 71.7501C63.3993 70.8086 65.4537 69.55 67.5018 67.5018C69.5504 65.4533 70.8102 63.3993 71.7501 60.9763C72.6553 58.6326 73.2896 55.956 73.471 52.0336C73.6524 48.1051 73.686 46.8503 73.686 36.8462C73.686 26.8399 73.6865 25.5851 73.471 21.6571C73.2896 17.7362 72.6738 15.0572 71.7501 12.7139C70.8083 10.2909 69.5504 8.23692 67.5018 6.18879C65.4537 4.14029 63.3993 2.88153 60.9763 1.94005C58.6326 1.03448 55.954 0.400651 52.0331 0.219611C48.1031 0.0381939 46.8502 0 36.8439 0ZM36.8439 17.9223C26.3962 17.9223 17.9278 26.3921 17.9278 36.8402C17.9278 47.288 26.3962 55.7568 36.8439 55.7568C47.2921 55.7568 55.7619 47.288 55.7619 36.8402C55.7619 26.3921 47.2921 17.9223 36.8439 17.9223ZM36.8439 49.1196C30.0635 49.1196 24.5651 43.6207 24.5651 36.8402C24.5651 30.0579 30.0635 24.5595 36.8439 24.5595C43.6263 24.5595 49.1246 30.0579 49.1246 36.8402C49.1246 43.6207 43.6263 49.1196 36.8439 49.1196ZM60.931 17.1744C60.931 19.6156 58.9518 21.5953 56.5102 21.5953C54.069 21.5953 52.0894 19.6156 52.0894 17.1744C52.0894 14.7332 54.069 12.7536 56.5102 12.7536C58.9518 12.7536 60.931 14.7332 60.931 17.1744Z" fill="#FF4747"/>
</svg>
