<svg width="664" height="423" viewBox="0 0 664 423" fill="none" xmlns="http://www.w3.org/2000/svg">
<path opacity="0.5" d="M483.158 106.273H66.2156C29.6458 106.273 0 135.919 0 172.489V355.884C0 392.454 29.6458 422.099 66.2156 422.099H483.158C519.727 422.099 549.373 392.454 549.373 355.884V172.489C549.373 135.919 519.727 106.273 483.158 106.273Z" fill="#CCCCCC"/>
<path d="M514.336 77.3659C505.46 77.3659 498.255 70.1617 498.255 61.2849V37.1626H433.929V61.2849C433.929 70.1617 426.724 77.3659 417.847 77.3659C408.971 77.3659 401.766 70.1617 401.766 61.2849V37.1626C401.766 19.425 416.192 5 433.929 5H498.255C515.992 5 530.416 19.425 530.416 37.1626V61.2849C530.416 70.1617 523.213 77.3659 514.336 77.3659Z" stroke="#0F3559" stroke-width="9.01236"/>
<path d="M477.509 244.014C474.614 245.139 470.431 245.943 466.089 245.943C461.747 245.943 457.567 245.139 453.708 243.692L273.113 183.548V306.248C273.113 330.692 292.895 350.472 317.339 350.472H614.841C639.285 350.472 659.067 330.692 659.067 306.248V183.548L477.509 244.014Z" stroke="#0F3559" stroke-width="9.01236"/>
<path d="M659.067 121.313V158.139L469.951 221.178C468.664 221.66 467.376 221.821 466.089 221.821C464.803 221.821 463.517 221.661 462.23 221.178L273.113 158.139V121.313C273.113 96.8693 292.895 77.0894 317.339 77.0894H614.841C639.285 77.0894 659.067 96.8693 659.067 121.313V121.313Z" stroke="#0F3559" stroke-width="9.01236"/>
<path d="M91.1895 273.531H225.176" stroke="#0F3559" stroke-width="6.31744" stroke-linecap="round" stroke-linejoin="round"/>
<path d="M120.555 295.098H225.854" stroke="#0F3559" stroke-width="6.11365" stroke-linecap="round" stroke-linejoin="round"/>
<path d="M157.721 316.666H226.817" stroke="#0F3559" stroke-width="6.11365" stroke-linecap="round" stroke-linejoin="round"/>
<path d="M208.884 187.38H106.386C96.4889 187.38 88.4648 195.403 88.4648 205.3C88.4648 215.198 96.4889 223.221 106.386 223.221H208.884C218.781 223.221 226.805 215.198 226.805 205.3C226.805 195.403 218.781 187.38 208.884 187.38Z" stroke="#FF4747" stroke-width="4.07577" stroke-linecap="round" stroke-linejoin="round"/>
<path d="M466.088 195.074C471.027 195.074 475.031 191.07 475.031 186.131C475.031 181.191 471.027 177.187 466.088 177.187C461.148 177.187 457.145 181.191 457.145 186.131C457.145 191.07 461.148 195.074 466.088 195.074Z" stroke="#FF4747" stroke-width="3.78588" stroke-linecap="round" stroke-linejoin="round"/>
</svg>
