<svg width="721" height="387" viewBox="0 0 721 387" fill="none" xmlns="http://www.w3.org/2000/svg">
<path opacity="0.5" d="M720.223 292.079V126.402C720.223 92.4897 692.732 64.9988 658.82 64.9988L488.754 64.9988C454.842 64.9988 427.352 92.4897 427.352 126.402V292.079C427.352 325.991 454.842 353.482 488.754 353.482H658.82C692.732 353.482 720.223 325.991 720.223 292.079Z" fill="#CCCCCC"/>
<path opacity="0.5" d="M561.75 135.714H157.519C128.465 135.714 104.912 159.267 104.912 188.321V334.024C104.912 363.078 128.465 386.631 157.519 386.631H561.75C590.803 386.631 614.357 363.078 614.357 334.024V188.321C614.357 159.267 590.803 135.714 561.75 135.714Z" fill="#CCCCCC"/>
<path d="M558.605 171.971H463.558C454.38 171.971 446.939 179.411 446.939 188.589C446.939 197.767 454.38 205.208 463.558 205.208H558.605C567.783 205.208 575.224 197.767 575.224 188.589C575.224 179.411 567.783 171.971 558.605 171.971Z" stroke="#FF4747" stroke-width="3.77953" stroke-linecap="round" stroke-linejoin="round"/>
<path d="M575.192 251.861H450.943" stroke="#0F3559" stroke-width="5.85827" stroke-linecap="round" stroke-linejoin="round"/>
<path d="M547.962 271.861H450.316" stroke="#0F3559" stroke-width="5.66929" stroke-linecap="round" stroke-linejoin="round"/>
<path d="M513.499 291.861H449.424" stroke="#0F3559" stroke-width="5.66929" stroke-linecap="round" stroke-linejoin="round"/>
<path d="M341.987 308.96C341.987 314.239 337.709 318.52 332.428 318.52H317.075H285.21H53.4312C35.4206 318.52 20.7682 303.866 20.7682 285.857V249.999C20.7682 231.99 35.4206 217.336 53.4312 217.336H285.21H317.075H332.428C337.709 217.336 341.987 221.617 341.987 226.896C341.987 232.175 337.709 236.456 332.428 236.456H326.635V299.4H332.428C337.709 299.4 341.987 303.681 341.987 308.96V308.96ZM382.933 195.381C382.933 200.66 378.654 204.941 373.373 204.941H358.995H326.153H133.87C117.12 204.941 103.495 191.316 103.495 174.568V149.049C103.495 132.302 117.12 118.677 133.87 118.677H326.151H358.992H373.372C378.652 118.677 382.931 122.958 382.931 128.237C382.931 133.516 378.652 137.797 373.372 137.797H368.553V185.821H373.372C378.654 185.821 382.933 190.1 382.933 195.381ZM133.87 185.821H326.151H349.432V137.795H326.151H133.87C127.665 137.795 122.614 142.843 122.614 149.047V174.567C122.616 180.773 127.665 185.821 133.87 185.821ZM394.257 3H312.368H94.4505H12.5595C7.27879 3 3 7.28115 3 12.5602C3 17.8393 7.27879 22.1202 12.5595 22.1202H20.7682V103.874C16.3908 106.912 13.5137 111.968 13.5137 117.688C13.5137 126.96 21.0562 134.502 30.3278 134.502C39.5989 134.502 47.1419 126.96 47.1419 117.688C47.1419 111.968 44.2636 106.914 39.8873 103.874V22.1202H84.891V97.4935C84.891 102.773 89.1694 107.053 94.4505 107.053H312.368C317.648 107.053 321.929 102.773 321.929 97.4935V22.1202H394.257C399.538 22.1202 403.818 17.8393 403.818 12.5602C403.818 7.28115 399.538 3 394.257 3V3Z" stroke="#0F3559" stroke-width="5.3057"/>
<path d="M158.684 362.576H395.76" stroke="#FF4747" stroke-width="5.44887" stroke-linecap="round" stroke-linejoin="round"/>
</svg>
