<svg width="75" height="74" viewBox="0 0 75 74" fill="none" xmlns="http://www.w3.org/2000/svg">
<path d="M74.2284 36.8434C74.2284 41.6791 73.2756 46.4674 71.4251 50.935C69.5746 55.4026 66.8619 59.4619 63.4425 62.8812C60.0232 66.3006 55.9644 69.0133 51.4968 70.8638C47.0292 72.7143 42.2404 73.6666 37.4047 73.6666C32.5691 73.6666 27.7812 72.7143 23.3136 70.8638C18.846 69.0133 14.7863 66.3006 11.367 62.8812C7.94762 59.4619 5.23492 55.4026 3.38438 50.935C1.53385 46.4674 0.582023 41.6791 0.582031 36.8434C0.582023 32.0077 1.53385 27.2195 3.38438 22.7519C5.23492 18.2843 7.94762 14.225 11.367 10.8057C14.7863 7.38632 18.846 4.67361 23.3136 2.82308C27.7812 0.97254 32.5691 0.0202555 37.4047 0.0202637C42.2404 0.0202555 47.0292 0.97254 51.4968 2.82308C55.9644 4.67361 60.0232 7.38632 63.4425 10.8057C66.8619 14.225 69.5746 18.2843 71.4251 22.7519C73.2756 27.2195 74.2284 32.0077 74.2284 36.8434" fill="#FF4747"/>
<path d="M59.4056 39.8065V54.9878H50.6038V40.8239C50.6038 37.2675 49.333 34.8388 46.1462 34.8388C43.7142 34.8388 42.2694 36.4739 41.6314 38.0571C41.3997 38.623 41.3399 39.4087 41.3399 40.2023V54.9872H32.5375C32.5375 54.9872 32.6557 30.9981 32.5375 28.5149H41.3406V32.2663C41.3229 32.2959 41.2979 32.3247 41.2822 32.353H41.3406V32.2663C42.5103 30.4664 44.5964 27.8933 49.2733 27.8933C55.0641 27.8933 59.4056 31.6769 59.4056 39.8065V39.8065ZM23.3294 15.7544C20.3185 15.7544 18.3486 17.7308 18.3486 20.3276C18.3486 22.8692 20.2614 24.9027 23.2139 24.9027H23.271C26.341 24.9027 28.2499 22.8692 28.2499 20.3276C28.1915 17.7308 26.341 15.7544 23.3294 15.7544ZM18.8718 54.9878H27.6709V28.5149H18.8718V54.9878Z" fill="white"/>
<g opacity="0.1">
<path opacity="0.1" d="M59.4056 39.8065V54.9878H50.6038V40.8239C50.6038 37.2675 49.333 34.8388 46.1462 34.8388C43.7142 34.8388 42.2694 36.4739 41.6314 38.0571C41.3997 38.623 41.3399 39.4087 41.3399 40.2023V54.9872H32.5375C32.5375 54.9872 32.6557 30.9981 32.5375 28.5149H41.3406V32.2663C41.3229 32.2959 41.2979 32.3247 41.2822 32.353H41.3406V32.2663C42.5103 30.4664 44.5964 27.8933 49.2733 27.8933C55.0641 27.8933 59.4056 31.6769 59.4056 39.8065V39.8065ZM23.3294 15.7544C20.3185 15.7544 18.3486 17.7308 18.3486 20.3276C18.3486 22.8692 20.2614 24.9027 23.2139 24.9027H23.271C26.341 24.9027 28.2499 22.8692 28.2499 20.3276C28.1915 17.7308 26.341 15.7544 23.3294 15.7544ZM18.8718 54.9878H27.6709V28.5149H18.8718V54.9878Z" fill="#FF4747"/>
</g>
</svg>
