<svg width="249" height="404" viewBox="0 0 249 404" fill="none" xmlns="http://www.w3.org/2000/svg">
<g clip-path="url(#clip0)">
<path d="M217.835 115.606C218.164 137.928 211.328 159.756 198.354 177.814C185.38 195.872 166.967 209.184 145.879 215.755C124.791 222.325 102.166 221.797 81.3989 214.252C60.6323 206.707 42.8446 192.55 30.7058 173.907C18.567 155.265 12.7319 133.141 14.0763 110.858C15.4206 88.5748 23.872 67.3338 38.1619 50.3233" stroke="#FF4747" stroke-width="27.7942" stroke-linecap="round" stroke-linejoin="round"/>
<path d="M216.431 286.87C216.782 310.689 208.976 333.897 194.339 352.555C179.702 371.213 159.134 384.172 136.127 389.233" stroke="#FF4747" stroke-width="27.7935" stroke-linecap="round" stroke-linejoin="round"/>
<path d="M217.834 115.602V197.726" stroke="#FF4747" stroke-width="27.7935" stroke-linecap="round" stroke-linejoin="round"/>
<path d="M248.664 33.2481C248.797 42.1692 245.392 50.78 239.194 57.1978C232.996 63.6155 224.509 67.318 215.589 67.4956C206.668 67.6733 198.04 64.3117 191.592 58.1458C185.143 51.98 181.398 43.5116 181.176 34.5923C180.953 25.673 184.272 17.0285 190.405 10.549C196.539 4.06949 204.988 0.282161 213.906 0.0151361C222.824 -0.251887 231.485 3.02312 237.996 9.12405C244.506 15.225 248.335 23.6555 248.647 32.5721" fill="#FF4747"/>
</g>
<defs>
<clipPath id="clip0">
<rect width="248.668" height="403.173" fill="white"/>
</clipPath>
</defs>
</svg>
