<svg width="696" height="540" viewBox="0 0 696 540" fill="none" xmlns="http://www.w3.org/2000/svg">
<path opacity="0.5" d="M264.449 0H49.9126C22.3466 0 0 22.3466 0 49.9126V188.155C0 215.721 22.3466 238.067 49.9126 238.067H264.449C292.015 238.067 314.361 215.721 314.361 188.155V49.9126C314.361 22.3466 292.015 0 264.449 0Z" fill="#CCCCCC"/>
<path d="M667.649 435.175V351.418C667.649 339.854 658.275 330.479 646.711 330.479C635.146 330.479 625.77 339.854 625.77 351.418V435.175C625.77 446.739 635.146 456.114 646.711 456.114C658.275 456.114 667.649 446.739 667.649 435.175Z" stroke="#FF4747" stroke-width="3.77953" stroke-linecap="round" stroke-linejoin="round"/>
<path d="M646.711 443.846C651.05 443.846 654.569 440.328 654.569 435.988C654.569 431.649 651.05 428.131 646.711 428.131C642.371 428.131 638.854 431.649 638.854 435.988C638.854 440.328 642.371 443.846 646.711 443.846Z" stroke="#FF4747" stroke-width="3.77953" stroke-linecap="round" stroke-linejoin="round"/>
<path d="M43.7139 259.398H135.143" stroke="#0F3559" stroke-width="5.66929" stroke-linecap="round" stroke-linejoin="round"/>
<path opacity="0.5" d="M640.094 153.775H264.775C234.05 153.775 209.142 178.683 209.142 209.408V483.947C209.142 514.672 234.05 539.58 264.775 539.58H640.094C670.82 539.58 695.728 514.672 695.728 483.947V209.408C695.728 178.683 670.82 153.775 640.094 153.775Z" fill="#CCCCCC"/>
<path d="M521.162 180.751C526.762 172.683 529.606 159.912 521.831 147.737C525.475 142.408 527.759 135.23 527.759 128.101C527.758 117.934 523.352 108.997 515.209 102.384C515.998 97.2097 515.197 91.4354 512.801 86.0635C509.567 78.8135 503.961 73.3133 497.005 70.4037C493.642 59.365 485.545 52.3016 473.326 49.8486C445.936 44.3459 405.656 55.2738 363.011 66.8433C330.627 75.6289 297.14 84.7137 273.265 84.7137H251.925C249.354 69.2955 245.426 58.8334 236.117 52.3725C228.049 46.7715 215.278 43.9268 203.105 51.7034C197.774 48.0588 190.597 45.7749 183.467 45.7749C173.3 45.7757 164.363 50.1819 157.749 58.3251C152.575 57.5352 146.801 58.3368 141.43 60.7323C134.18 63.9653 128.68 69.5721 125.77 76.5271C114.731 79.8901 107.668 87.9874 105.214 100.207C100.165 125.342 108.963 161.49 120.089 202.688C121.288 207.13 125.862 209.757 130.305 208.56C134.748 207.361 137.377 202.786 136.177 198.343C126 160.656 117.223 125.041 121.553 103.488C123.012 96.2207 126.383 92.9435 133.574 91.8003C136.982 91.2587 139.704 88.6699 140.417 85.2928C141.606 79.6609 145.815 77.0221 148.217 75.9505C151.813 74.3466 155.4 74.4307 156.948 75.3256C160.935 77.627 166.03 76.2613 168.33 72.276C172.018 65.8884 176.981 62.5796 183.08 62.4438C189.504 62.2921 194.553 65.6659 195.376 66.9541C196.672 69.1972 198.937 70.7111 201.505 71.0494C204.075 71.3844 206.653 70.5112 208.484 68.6797C216.583 60.579 223.861 64.1502 226.614 66.0609C231.582 69.5105 234.164 76.8354 236.463 94.0342C236.473 94.1159 236.483 94.1959 236.496 94.2767C239.756 118.864 239.46 152.491 239.243 177.057C239.198 182.196 239.155 187.048 239.155 191.139C239.155 195.74 242.886 199.471 247.488 199.471H264.662C263.504 216.493 258.761 225.754 253.382 236.257C246.254 250.175 238.175 265.951 238.175 300.267V317.671C236.367 317.657 234.49 317.641 232.575 317.624C210.423 317.428 181.051 317.169 156.745 319.47V300.267C156.745 292.125 155.86 282.88 154.04 272.006C153.28 267.468 148.988 264.411 144.446 265.163C139.907 265.923 136.843 270.219 137.604 274.758C139.27 284.713 140.081 293.057 140.081 300.267V321.607C124.663 324.177 114.202 328.106 107.741 337.414C102.14 345.481 99.296 358.252 107.07 370.428C103.425 375.76 101.142 382.938 101.142 390.066C101.142 400.234 105.549 409.171 113.691 415.783C112.902 420.958 113.702 426.731 116.098 432.103C119.332 439.353 124.939 444.853 131.894 447.764C135.257 458.802 143.354 465.866 155.574 468.319C182.963 473.821 223.244 462.893 265.89 451.324C298.273 442.538 331.76 433.454 355.636 433.454H376.976C379.546 448.873 383.475 459.334 392.783 465.795C400.851 471.396 413.622 474.24 425.797 466.464C431.126 470.108 438.304 472.392 445.433 472.392C455.6 472.392 464.536 467.985 471.15 459.842C476.323 460.632 482.098 459.83 487.47 457.435C494.72 454.201 500.22 448.595 503.13 441.639C514.167 438.276 521.232 430.178 523.685 417.96C529.188 390.569 518.259 350.289 506.691 307.644C497.905 275.26 488.82 241.773 488.82 217.896V196.557C504.238 193.988 514.699 190.059 521.162 180.751V180.751ZM268.215 243.856C274.053 232.457 280.066 220.716 281.348 199.64C305.952 200.697 317.509 206.616 329.678 212.849C341.077 218.687 352.818 224.701 373.893 225.982C372.836 250.586 366.917 262.144 360.684 274.314C354.846 285.712 348.832 297.453 347.551 318.528C322.947 317.471 311.39 311.552 299.22 305.319C287.822 299.481 276.081 293.467 255.005 292.186C256.063 267.582 261.982 256.025 268.215 243.856ZM355.635 416.789C329.539 416.789 294.963 426.169 261.525 435.241C222.621 445.795 182.392 456.709 158.855 451.981C151.587 450.522 148.311 447.152 147.167 439.96C146.625 436.551 144.037 433.83 140.659 433.116C135.028 431.926 132.389 427.718 131.317 425.316C129.713 421.721 129.798 418.134 130.692 416.585C132.993 412.599 131.627 407.503 127.642 405.203C121.254 401.515 117.946 396.553 117.81 390.454C117.666 384.026 121.033 378.981 122.321 378.158C124.564 376.862 126.077 374.598 126.415 372.029C126.754 369.461 125.878 366.881 124.046 365.05C115.947 356.95 119.517 349.674 121.428 346.92C124.878 341.951 132.203 339.37 149.402 337.072C149.483 337.062 149.563 337.052 149.644 337.039C174.232 333.778 207.861 334.074 232.428 334.291C237.566 334.337 242.418 334.379 246.507 334.379C251.109 334.379 254.839 330.647 254.839 326.046V308.872C271.861 310.03 281.121 314.772 291.624 320.151C305.543 327.28 321.318 335.359 355.635 335.359H373.04C373.026 337.168 373.009 339.044 372.992 340.959C372.797 363.112 372.537 392.483 374.839 416.79H355.635V416.789ZM490.607 312.009C501.161 350.912 512.076 391.142 507.347 414.679C505.888 421.947 502.518 425.223 495.326 426.366C491.917 426.908 489.196 429.496 488.482 432.874C487.292 438.506 483.083 441.145 480.681 442.217C477.085 443.822 473.498 443.736 471.951 442.842C467.964 440.54 462.868 441.907 460.569 445.891C456.881 452.279 451.918 455.588 445.82 455.723C439.378 455.868 434.347 452.501 433.523 451.213C432.228 448.97 429.964 447.456 427.395 447.119C427.032 447.07 426.669 447.047 426.307 447.047C424.112 447.047 421.988 447.914 420.416 449.488C412.318 457.587 405.041 454.017 402.286 452.106C397.317 448.656 394.736 441.332 392.437 424.133C392.427 424.051 392.417 423.971 392.405 423.891C389.145 399.303 389.44 365.674 389.657 341.107C389.703 335.969 389.744 331.117 389.744 327.028C389.744 322.427 386.013 318.695 381.412 318.695H364.237C365.396 301.674 370.138 292.414 375.517 281.911C382.646 267.993 390.725 252.217 390.725 217.9V200.496C392.534 200.51 394.41 200.527 396.325 200.543C418.479 200.739 447.851 200.998 472.156 198.697V217.9C472.155 243.995 481.535 278.571 490.607 312.009V312.009ZM479.502 181.097C479.418 181.107 479.336 181.117 479.252 181.13C454.663 184.389 421.036 184.094 396.472 183.877C391.334 183.832 386.482 183.79 382.393 183.79C377.792 183.79 374.06 187.521 374.06 192.122V209.296C357.039 208.138 347.779 203.396 337.276 198.016C323.357 190.887 307.582 182.808 273.265 182.808H255.86C255.874 180.999 255.891 179.122 255.908 177.205C256.103 155.055 256.362 125.683 254.061 101.378H273.264C299.36 101.378 333.936 91.9978 367.374 82.9264C406.278 72.371 446.509 61.4589 470.045 66.1858C477.312 67.6448 480.588 71.0153 481.732 78.2069C482.274 81.6165 484.862 84.3379 488.24 85.0511C493.872 86.241 496.511 90.4488 497.583 92.851C499.187 96.4465 499.102 100.034 498.208 101.583C495.906 105.568 497.272 110.664 501.257 112.965C507.645 116.652 510.954 121.615 511.089 127.714C511.234 134.142 507.867 139.186 506.579 140.01C504.336 141.305 502.822 143.569 502.485 146.138C502.146 148.706 503.022 151.286 504.853 153.117C512.953 161.217 509.384 168.494 507.472 171.246C504.021 176.217 496.699 178.798 479.502 181.097Z" fill="#0F3559"/>
<path d="M146.134 236.751C146.134 232.15 142.403 228.418 137.801 228.418H137.795C133.193 228.418 129.466 232.15 129.466 236.751C129.466 241.352 133.198 245.083 137.8 245.083C142.402 245.083 146.134 241.353 146.134 236.751Z" fill="#0F3559"/>
</svg>
