<svg width="3246" height="1171" viewBox="0 0 3246 1171" fill="none" xmlns="http://www.w3.org/2000/svg">
<g clip-path="url(#clip0)">
<path opacity="0.25" d="M1235.74 789.305H1275.72C1279.58 789.305 1282.72 792.441 1282.72 796.309V822.176H1311.61V799.412H1302.75C1298.89 799.412 1295.75 796.276 1295.75 792.408V741.472H1275.72C1270.91 741.472 1267.54 736.737 1269.09 732.207L1275.53 713.332C1279.77 698.443 1295.61 688.065 1314.12 688.065H1342.69V662.829C1342.69 658.961 1345.83 655.825 1349.7 655.825C1353.57 655.825 1356.7 658.961 1356.7 662.829V688.065H1383.77C1398.44 688.065 1411.84 694.692 1418.73 705.361C1420.83 708.61 1419.89 712.945 1416.65 715.045C1413.4 717.145 1409.06 716.211 1406.96 712.962C1402.69 706.347 1393.59 702.073 1383.77 702.073H1314.12C1301.99 702.073 1291.41 708.471 1288.97 717.285C1288.97 717.549 1289.18 716.669 1285.51 727.463H1421.59C1425.46 727.463 1428.59 730.6 1428.59 734.468C1428.59 738.336 1425.46 741.472 1421.59 741.472H1403.65V792.408C1403.65 796.276 1400.51 799.412 1396.64 799.412H1387.78V822.176H1457.39V763.438C1457.39 759.569 1460.52 756.433 1464.39 756.433C1468.26 756.433 1471.4 759.569 1471.4 763.438V822.176H1497.23V763.438C1497.23 759.569 1500.36 756.433 1504.23 756.433H1540.86C1544.73 756.433 1547.86 759.569 1547.86 763.438V822.176H1573.83V741.472H1440.39C1435.59 741.472 1432.21 736.748 1433.76 732.207L1440.2 713.332C1444.27 699.08 1458.95 688.968 1476.43 688.128V666.896H1452.57C1447.77 666.896 1444.4 662.161 1445.94 657.631L1452.38 638.755C1456.45 624.504 1471.13 614.392 1488.61 613.552V595.412H1465.71C1460.65 595.412 1457.25 590.199 1459.3 585.572L1465.61 571.332C1469.8 557.249 1484.39 547.28 1501.75 546.446V537.627C1501.75 533.759 1504.88 530.623 1508.75 530.623C1512.62 530.623 1515.75 533.759 1515.75 537.627V545.507H1529.48V520.992H1474.46C1469.4 520.992 1466.01 515.779 1468.06 511.152L1474.36 496.911C1478.75 482.193 1494.48 471.962 1512.86 471.962H1515.61V450.949C1515.61 447.081 1518.75 443.945 1522.61 443.945C1526.48 443.945 1529.62 447.081 1529.62 450.949V471.962H1532.95C1551.72 471.962 1567.54 482.468 1571.64 497.576L1577.26 511.344C1579.13 515.945 1575.75 520.993 1570.77 520.993H1543.49V546.416C1561.47 547.055 1576.43 557.368 1580.4 571.997L1586.01 585.765C1587.89 590.366 1584.51 595.414 1579.53 595.414H1502.62V613.49H1554.84C1573.74 613.49 1589.65 624.139 1593.61 639.412L1599.35 657.81C1600.74 662.316 1597.38 666.897 1592.66 666.897H1568.8V688.098C1586.91 688.741 1601.96 699.196 1605.8 713.988L1611.53 732.386C1612.94 736.892 1609.56 741.474 1604.84 741.474H1587.84V822.178H1621.85V821.302C1621.85 817.434 1624.99 814.297 1628.86 814.297C1632.72 814.297 1635.86 817.434 1635.86 821.302V850.194H1661.82V803.315H1628.86C1624.99 803.315 1621.85 800.178 1621.85 796.31C1621.85 792.442 1624.99 789.306 1628.86 789.306H1668.83C1672.7 789.306 1675.83 792.442 1675.83 796.31V857.198C1675.83 861.066 1672.7 864.202 1668.83 864.202H1580.84C1576.97 864.202 1573.83 861.066 1573.83 857.198C1573.83 853.33 1576.97 850.194 1580.84 850.194H1621.85V836.185H1282.72V850.194H1534.87C1538.74 850.194 1541.88 853.33 1541.88 857.198C1541.88 861.066 1538.74 864.202 1534.87 864.202H1235.74C1231.87 864.202 1228.74 861.066 1228.74 857.198V796.31C1228.74 792.44 1231.88 789.304 1235.74 789.304V789.305ZM1558.19 501.509C1555.92 492.506 1545.31 485.971 1532.95 485.971H1512.86C1500.73 485.971 1490.15 492.369 1487.71 501.183C1487.49 501.951 1487.38 502.127 1485.22 506.984H1560.35C1558.31 501.984 1558.35 502.144 1558.19 501.509ZM1566.95 575.93C1564.68 566.927 1554.06 560.392 1541.71 560.392H1504.11C1491.98 560.392 1481.4 566.789 1478.95 575.603C1478.74 576.371 1478.62 576.548 1476.47 581.404H1569.11C1567.07 576.404 1567.11 576.564 1566.95 575.93ZM1509.78 666.897C1505.91 666.897 1502.77 663.761 1502.77 659.892C1502.77 656.024 1505.91 652.888 1509.78 652.888H1583.14L1580.19 643.407C1576.76 632.439 1565.72 627.498 1554.84 627.498H1490.97C1478.84 627.498 1468.26 633.895 1465.82 642.709C1465.82 643 1466.01 642.283 1462.36 652.888H1487.3C1494.65 652.888 1497.03 662.837 1490.44 666.149V687.19H1554.79V666.897H1509.78ZM1592.37 717.983C1588.94 707.015 1577.9 702.073 1567.02 702.073H1478.79C1466.66 702.073 1456.08 708.471 1453.64 717.285C1453.64 717.572 1453.84 716.728 1450.18 727.463H1595.32L1592.37 717.983ZM1373.78 799.412H1358.45C1354.59 799.412 1351.45 796.276 1351.45 792.408C1351.45 788.54 1354.59 785.403 1358.45 785.403H1389.64V741.472H1309.76V785.403H1338.32C1342.19 785.403 1345.32 788.54 1345.32 792.408C1345.32 796.276 1342.19 799.412 1338.32 799.412H1325.62V822.176H1373.78V799.412ZM1533.85 770.442H1511.23V822.176H1533.85V770.442ZM1242.75 850.193H1268.71V803.313H1242.75V850.193Z" fill="#FF4747" fill-opacity="0.3"/>
<g opacity="0.25">
<g opacity="0.25">
<path opacity="0.25" d="M1689.64 990.811H1752.29V973.727C1752.29 969.105 1756.03 965.358 1760.65 965.358H1807.98L1802.48 950.013H1795.1C1791.45 950.013 1788.21 947.638 1787.12 944.15L1778.75 917.474C1777.95 914.931 1778.41 912.162 1779.99 910.015C1781.56 907.868 1784.07 906.6 1786.73 906.6H1848.94L1867.36 669.265L1847.95 646.8C1845.8 644.323 1845.3 640.824 1846.67 637.846C1848.03 634.869 1851 632.959 1854.28 632.959H1866.58C1866.29 626.931 1867.49 620.771 1870.14 616.017L1888.37 583.364C1889.84 580.714 1892.64 579.073 1895.67 579.073C1898.71 579.073 1901.5 580.714 1902.98 583.364L1920.65 615.022C1923.45 620.045 1924.74 626.557 1924.46 632.96H1937.05C1940.34 632.96 1943.32 634.882 1944.68 637.875C1946.03 640.867 1945.51 644.376 1943.35 646.847L1923.65 669.302L1942.07 906.602H2004.3C2006.96 906.602 2009.47 907.871 2011.04 910.017C2012.62 912.165 2013.08 914.934 2012.28 917.476L2003.92 944.152C2002.82 947.641 1999.59 950.015 1995.93 950.015H1988.54L1983.04 965.361H2036.82C2041.44 965.361 2045.19 969.107 2045.19 973.729V990.813H2101.38C2106 990.813 2109.75 994.56 2109.75 999.182C2109.75 1003.8 2106 1007.55 2101.38 1007.55H1851.85C1847.22 1007.55 1843.48 1003.8 1843.48 999.182C1843.48 994.56 1847.22 990.813 1851.85 990.813H2028.45V982.098H1769.05H1769.02V990.814H1785.76C1790.38 990.814 1794.13 994.56 1794.13 999.182C1794.13 1003.8 1790.38 1007.55 1785.76 1007.55H1689.64C1685.02 1007.55 1681.27 1003.8 1681.27 999.182C1681.27 994.558 1685.02 990.811 1689.64 990.811ZM1906.03 623.178L1895.67 604.613L1884.76 624.174C1883.55 626.338 1883.07 629.78 1883.34 632.959H1907.69C1907.96 629.399 1907.39 625.615 1906.03 623.178ZM1872.57 649.696L1879.81 658.065H1911.25L1918.59 649.696H1872.57ZM1907.29 674.802H1883.72L1865.73 906.6H1925.29L1907.29 674.802ZM1989.79 933.275L1992.9 923.338H1798.13L1801.25 933.275H1989.79ZM1825.75 965.358H1965.27L1970.76 950.013H1820.26L1825.75 965.358Z" fill="#FF4747" fill-opacity="0.3"/>
</g>
</g>
<path opacity="0.25" d="M3174.17 1163.23H802.332" stroke="#FF4747" stroke-opacity="0.3" stroke-width="15.1181" stroke-linecap="round" stroke-linejoin="round"/>
<path opacity="0.25" d="M401.024 1072.67H7.66699" stroke="#FF4747" stroke-opacity="0.3" stroke-width="15.1181" stroke-linecap="round" stroke-linejoin="round"/>
<g opacity="0.25">
<path opacity="0.25" d="M2705.72 893.114V424.971C2705.72 423.379 2705.09 421.853 2703.96 420.728C2702.84 419.603 2701.31 418.971 2699.72 418.971H2589.28C2588.49 418.971 2587.71 419.126 2586.98 419.427C2586.25 419.729 2585.59 420.171 2585.03 420.728C2584.48 421.285 2584.03 421.947 2583.73 422.675C2583.43 423.403 2583.28 424.183 2583.28 424.971V470.423L2548.29 497.512C2547.56 498.072 2546.98 498.792 2546.57 499.614C2546.17 500.436 2545.96 501.34 2545.96 502.256V527.918H2501.8V481.818C2501.8 480.227 2501.17 478.7 2500.04 477.575C2498.92 476.45 2497.39 475.818 2495.8 475.818C2494.21 475.818 2492.68 476.45 2491.56 477.575C2490.43 478.7 2489.8 480.227 2489.8 481.818V527.923H2427.13C2425.54 527.923 2424.02 528.555 2422.89 529.68C2421.76 530.805 2421.13 532.331 2421.13 533.923V563.781H2402.16C2400.57 563.781 2399.04 564.413 2397.92 565.538C2396.79 566.663 2396.16 568.189 2396.16 569.781V892.992H2351.64V854.244H2388.78C2389.66 854.244 2390.53 854.051 2391.32 853.68C2392.12 853.308 2392.82 852.767 2393.38 852.095C2393.95 851.422 2394.36 850.633 2394.58 849.785C2394.81 848.937 2394.84 848.05 2394.69 847.187L2388.39 811.979C2388.16 810.697 2387.51 809.527 2386.55 808.647L2381.78 781.318C2381.61 780.387 2381.23 779.508 2380.66 778.754C2380.09 778 2379.34 777.392 2378.49 776.98L2373.86 750.626C2373.69 749.682 2373.3 748.792 2372.72 748.031C2372.13 747.271 2371.37 746.662 2370.5 746.257L2365.43 719.846C2365.24 718.836 2364.79 717.893 2364.12 717.108C2363.46 716.322 2362.6 715.721 2361.64 715.361L2341.88 656.751C2341.48 655.561 2340.71 654.527 2339.69 653.794C2338.67 653.062 2337.45 652.668 2336.19 652.668C2334.93 652.668 2333.71 653.062 2332.69 653.794C2331.67 654.527 2330.91 655.561 2330.51 656.751L2310.74 715.361C2309.78 715.721 2308.92 716.323 2308.26 717.108C2307.59 717.893 2307.14 718.836 2306.95 719.846L2301.88 746.257C2301.01 746.662 2300.25 747.271 2299.66 748.031C2299.08 748.792 2298.68 749.682 2298.52 750.626L2293.89 776.979C2293.03 777.391 2292.29 777.999 2291.72 778.754C2291.15 779.508 2290.77 780.386 2290.6 781.318L2285.83 808.647C2284.87 809.527 2284.22 810.697 2283.99 811.979L2277.69 847.187C2277.54 848.05 2277.57 848.937 2277.8 849.785C2278.02 850.633 2278.43 851.422 2278.99 852.095C2279.56 852.767 2280.26 853.308 2281.06 853.68C2281.85 854.051 2282.72 854.244 2283.6 854.244H2320.74V864.636C2313.86 860.471 2305.65 859.097 2297.79 860.796C2289.93 862.495 2283.02 867.137 2278.48 873.77C2273.26 874.331 2268.34 876.489 2264.4 879.949C2260.45 883.408 2257.67 888.001 2256.43 893.1C2251.01 893.647 2245.98 896.187 2242.33 900.227C2238.67 904.267 2236.64 909.521 2236.63 914.971C2236.63 916.562 2237.26 918.088 2238.39 919.213C2239.51 920.339 2241.04 920.971 2242.63 920.971H2719.38C2720.17 920.971 2720.95 920.816 2721.68 920.514C2722.41 920.213 2723.07 919.771 2723.63 919.213C2724.18 918.656 2724.62 917.995 2724.93 917.267C2725.23 916.539 2725.38 915.759 2725.38 914.971C2725.38 909.544 2723.36 904.312 2719.74 900.278C2716.11 896.243 2711.11 893.692 2705.72 893.114ZM2668.77 430.971H2693.72V892.992H2668.77V430.971ZM2631.82 430.971H2656.77V892.992H2631.82V430.971ZM2619.82 430.971V892.992H2595.44L2595.28 430.971H2619.82ZM2557.96 505.199L2582.87 485.912V563.781H2570.47V533.918C2570.47 532.327 2569.84 530.8 2568.72 529.675C2567.59 528.55 2566.06 527.918 2564.47 527.918H2557.96L2557.96 505.199ZM2408.16 575.781H2436.88C2438.47 575.781 2440 575.149 2441.12 574.023C2442.25 572.898 2442.88 571.372 2442.88 569.781C2442.88 568.189 2442.25 566.663 2441.12 565.538C2440 564.413 2438.47 563.781 2436.88 563.781H2433.13V539.918H2558.47V563.781H2478.88C2477.29 563.781 2475.76 564.413 2474.64 565.538C2473.51 566.663 2472.88 568.189 2472.88 569.781C2472.88 571.372 2473.51 572.898 2474.64 574.023C2475.76 575.149 2477.29 575.781 2478.88 575.781H2583.44V604.763H2408.16V575.781ZM2408.16 616.763H2583.44V645.745H2408.16V616.763ZM2408.16 657.745H2583.44V686.729H2408.16V657.745ZM2408.16 698.729H2583.44V727.711H2408.16V698.729ZM2408.16 739.711H2583.44V768.693H2408.16V739.711ZM2408.16 780.693H2583.44V809.676H2408.16V780.693ZM2408.16 821.676H2583.44V850.658H2408.16V821.676ZM2408.16 862.658H2583.44V892.992H2408.16V862.658ZM2336.19 677.445L2348.85 714.977H2323.53L2336.19 677.445ZM2317.8 726.977H2354.58L2358.17 745.664H2314.21L2317.8 726.977ZM2309.46 757.664H2362.91L2366.2 776.35H2306.18L2309.46 757.664ZM2301.56 788.35H2370.82L2374.08 807.036H2298.3L2301.56 788.35ZM2290.76 842.244L2294.92 819.036H2377.46L2381.61 842.244H2290.76ZM2339.64 854.244V892.992H2332.73V854.244H2339.64ZM2281.18 885.628C2281.34 885.628 2281.49 885.628 2281.65 885.635C2282.79 885.686 2283.92 885.414 2284.9 884.851C2285.89 884.287 2286.69 883.455 2287.23 882.451C2288.81 879.465 2291.15 876.941 2294 875.128C2296.86 873.315 2300.13 872.275 2303.51 872.108C2306.89 871.942 2310.25 872.656 2313.27 874.18C2316.29 875.705 2318.86 877.987 2320.74 880.803V892.99H2269.19C2270.31 890.776 2272.03 888.916 2274.14 887.616C2276.26 886.317 2278.69 885.628 2281.18 885.626V885.628ZM2250.64 908.971C2251.57 907.735 2252.77 906.732 2254.16 906.042C2255.54 905.351 2257.07 904.992 2258.61 904.992H2703.41C2704.95 904.992 2706.48 905.352 2707.86 906.043C2709.24 906.733 2710.44 907.736 2711.37 908.971H2250.64Z" fill="#FF4747"/>
<path opacity="0.25" d="M2381.22 596.417C2384.84 596.417 2387.78 593.368 2387.78 589.607C2387.78 585.846 2384.84 582.797 2381.22 582.797C2377.6 582.797 2374.66 585.846 2374.66 589.607C2374.66 593.368 2377.6 596.417 2381.22 596.417Z" fill="#FF4747"/>
<path opacity="0.25" d="M2375.78 612.72V707.52C2375.78 709.111 2376.41 710.637 2377.54 711.763C2378.66 712.888 2380.19 713.52 2381.78 713.52C2383.37 713.52 2384.9 712.888 2386.02 711.763C2387.15 710.637 2387.78 709.111 2387.78 707.52V612.72C2387.78 611.129 2387.15 609.603 2386.02 608.477C2384.9 607.352 2383.37 606.72 2381.78 606.72C2380.19 606.72 2378.66 607.352 2377.54 608.477C2376.41 609.603 2375.78 611.129 2375.78 612.72Z" fill="#FF4747"/>
</g>
<path opacity="0.25" d="M2554.67 999.934H2161.31" stroke="#FF4747" stroke-opacity="0.3" stroke-width="15.1181" stroke-linecap="round" stroke-linejoin="round"/>
<path opacity="0.25" d="M2053 1100.14H1965.98" stroke="#FF4747" stroke-opacity="0.3" stroke-width="15.1181" stroke-linecap="round" stroke-linejoin="round"/>
<path opacity="0.25" d="M2947.28 917.284H2860.26" stroke="#FF4747" stroke-opacity="0.3" stroke-width="15.1181" stroke-linecap="round" stroke-linejoin="round"/>
<g opacity="0.25">
<g opacity="0.25">
<g opacity="0.25">
<path opacity="0.25" d="M2734.99 726.022H2785.09V663.89C2785.09 659.691 2788.49 656.286 2792.69 656.286C2796.89 656.286 2800.3 659.691 2800.3 663.89V835.973H2904.19H2930.8V802.062V779.251V735.529V712.718V668.997V646.186V610.069H2800.3V628.402C2800.3 632.601 2796.89 636.006 2792.69 636.006C2788.49 636.006 2785.09 632.601 2785.09 628.402V602.466C2785.09 598.267 2788.49 594.862 2792.69 594.862H2896.59V348.376C2896.59 344.177 2899.99 340.772 2904.19 340.772H3062.34C3066.54 340.772 3069.95 344.177 3069.95 348.376V462.128H3168.31C3172.51 462.128 3175.91 465.533 3175.91 469.732V656.686H3231.78C3235.98 656.686 3239.38 660.091 3239.38 664.29V843.576C3239.38 847.775 3235.98 851.18 3231.78 851.18H3168.31H3010.15C3010.15 851.18 3010.14 851.179 3010.13 851.179H2938.4H2904.19H2792.71C2792.7 851.179 2792.7 851.18 2792.69 851.18H2734.99C2730.79 851.18 2727.38 847.775 2727.38 843.576V733.626C2727.38 729.427 2730.79 726.022 2734.99 726.022ZM3175.91 835.972H3224.17V671.894H3175.91V835.972ZM3017.76 835.972H3062.34V835.973H3160.7V793.924H3017.76V835.972ZM3017.76 727.518H3086.29C3090.49 727.518 3093.89 730.923 3093.89 735.122C3093.89 739.321 3090.49 742.726 3086.29 742.726H3017.76V778.716H3160.7V742.726H3121.77C3117.57 742.726 3114.17 739.321 3114.17 735.122C3114.17 730.923 3117.57 727.518 3121.77 727.518H3160.7V691.528H3017.76V727.518ZM3017.76 676.322H3160.7V664.29V640.331H3017.76V676.322ZM3017.76 625.124H3160.7V589.135H3017.76V625.124ZM3017.76 573.927H3160.7V537.937H3017.76V573.927ZM3017.76 522.729H3160.7V477.335H3017.76V522.729ZM2946 602.467V646.188V668.999V712.72V735.531V779.253V802.064V835.975H3002.55V469.731C3002.55 465.532 3005.95 462.127 3010.15 462.127H3020.52V446.92C3020.52 442.721 3023.92 439.316 3028.12 439.316C3032.32 439.316 3035.73 442.721 3035.73 446.92V462.127H3054.74V355.98H2911.79V594.863H2938.4C2942.6 594.863 2946 598.267 2946 602.467ZM2742.59 835.972H2785.09V741.229H2742.59V835.972Z" fill="#FF4747" fill-opacity="0.3"/>
</g>
</g>
<g opacity="0.25">
<g opacity="0.25">
<path opacity="0.25" d="M2938.4 505.52C2942.6 505.52 2946 508.925 2946 513.124V535.935C2946 540.135 2942.6 543.539 2938.4 543.539C2934.2 543.539 2930.8 540.134 2930.8 535.935V513.124C2930.8 508.925 2934.2 505.52 2938.4 505.52Z" fill="#FF4747" fill-opacity="0.3"/>
</g>
</g>
<g opacity="0.25">
<g opacity="0.25">
<path opacity="0.25" d="M2983.26 505.52C2987.46 505.52 2990.87 508.925 2990.87 513.124V535.935C2990.87 540.135 2987.46 543.539 2983.26 543.539C2979.06 543.539 2975.66 540.134 2975.66 535.935V513.124C2975.66 508.925 2979.06 505.52 2983.26 505.52Z" fill="#FF4747" fill-opacity="0.3"/>
</g>
</g>
<g opacity="0.25">
<g opacity="0.25">
<path opacity="0.25" d="M2938.4 439.317C2942.6 439.317 2946 442.722 2946 446.921V469.732C2946 473.931 2942.6 477.336 2938.4 477.336C2934.2 477.336 2930.8 473.931 2930.8 469.732V446.921C2930.8 442.722 2934.2 439.317 2938.4 439.317Z" fill="#FF4747" fill-opacity="0.3"/>
</g>
</g>
<g opacity="0.25">
<g opacity="0.25">
<path opacity="0.25" d="M2983.26 439.317C2987.46 439.317 2990.87 442.722 2990.87 446.921V469.732C2990.87 473.931 2987.46 477.336 2983.26 477.336C2979.06 477.336 2975.66 473.931 2975.66 469.732V446.921C2975.66 442.722 2979.06 439.317 2983.26 439.317Z" fill="#FF4747" fill-opacity="0.3"/>
</g>
</g>
<g opacity="0.25">
<g opacity="0.25">
<path opacity="0.25" d="M3028.12 373.113C3032.32 373.113 3035.73 376.518 3035.73 380.717V403.528C3035.73 407.727 3032.32 411.132 3028.12 411.132C3023.92 411.132 3020.52 407.727 3020.52 403.528V380.717C3020.52 376.518 3023.92 373.113 3028.12 373.113Z" fill="#FF4747" fill-opacity="0.3"/>
</g>
</g>
<g opacity="0.25">
<g opacity="0.25">
<path opacity="0.25" d="M2938.4 373.113C2942.6 373.113 2946 376.518 2946 380.717V403.528C2946 407.727 2942.6 411.132 2938.4 411.132C2934.2 411.132 2930.8 407.727 2930.8 403.528V380.717C2930.8 376.518 2934.2 373.113 2938.4 373.113Z" fill="#FF4747" fill-opacity="0.3"/>
</g>
</g>
<g opacity="0.25">
<g opacity="0.25">
<path opacity="0.25" d="M2983.26 373.113C2987.46 373.113 2990.87 376.518 2990.87 380.717V403.528C2990.87 407.727 2987.46 411.132 2983.26 411.132C2979.06 411.132 2975.66 407.727 2975.66 403.528V380.717C2975.66 376.518 2979.06 373.113 2983.26 373.113Z" fill="#FF4747" fill-opacity="0.3"/>
</g>
</g>
<g opacity="0.25">
<g opacity="0.25">
<path opacity="0.25" d="M2942.46 573.237C2945.54 575.173 2946.84 579.201 2945.42 582.563C2944.21 585.431 2941.35 587.329 2938.22 587.252C2935.03 587.174 2932.19 585.065 2931.18 582.041C2928.97 575.39 2936.57 569.531 2942.46 573.237Z" fill="#FF4747" fill-opacity="0.3"/>
</g>
</g>
<g opacity="0.25">
<g opacity="0.25">
<path opacity="0.25" d="M2983.26 572.052C2987.46 572.052 2990.87 575.457 2990.87 579.656V602.467C2990.87 606.667 2987.46 610.071 2983.26 610.071C2979.06 610.071 2975.66 606.666 2975.66 602.467V579.656C2975.66 575.456 2979.06 572.052 2983.26 572.052Z" fill="#FF4747" fill-opacity="0.3"/>
</g>
</g>
<g opacity="0.25">
<g opacity="0.25">
<path opacity="0.25" d="M2983.26 771.648C2987.46 771.648 2990.87 775.053 2990.87 779.252V802.063C2990.87 806.262 2987.46 809.667 2983.26 809.667C2979.06 809.667 2975.66 806.262 2975.66 802.063V779.252C2975.66 775.052 2979.06 771.648 2983.26 771.648Z" fill="#FF4747" fill-opacity="0.3"/>
</g>
</g>
<g opacity="0.25">
<g opacity="0.25">
<path opacity="0.25" d="M2983.26 705.116C2987.46 705.116 2990.87 708.521 2990.87 712.72V735.531C2990.87 739.73 2987.46 743.135 2983.26 743.135C2979.06 743.135 2975.66 739.73 2975.66 735.531V712.72C2975.66 708.521 2979.06 705.116 2983.26 705.116Z" fill="#FF4747" fill-opacity="0.3"/>
</g>
</g>
<g opacity="0.25">
<g opacity="0.25">
<path opacity="0.25" d="M2983.26 638.585C2987.46 638.585 2990.87 641.99 2990.87 646.189V669C2990.87 673.199 2987.46 676.604 2983.26 676.604C2979.06 676.604 2975.66 673.199 2975.66 669V646.189C2975.66 641.989 2979.06 638.585 2983.26 638.585Z" fill="#FF4747" fill-opacity="0.3"/>
</g>
</g>
<g opacity="0.25">
<g opacity="0.25">
<path opacity="0.25" d="M2823.48 769.332H2907.61C2911.81 769.332 2915.21 772.737 2915.21 776.936C2915.21 781.135 2911.81 784.54 2907.61 784.54H2823.48C2819.28 784.54 2815.88 781.135 2815.88 776.936C2815.88 772.737 2819.28 769.332 2823.48 769.332Z" fill="#FF4747" fill-opacity="0.3"/>
</g>
</g>
<g opacity="0.25">
<g opacity="0.25">
<path opacity="0.25" d="M2823.48 805.276H2907.61C2911.81 805.276 2915.21 808.681 2915.21 812.88C2915.21 817.079 2911.81 820.484 2907.61 820.484H2823.48C2819.28 820.484 2815.88 817.079 2815.88 812.88C2815.88 808.68 2819.28 805.276 2823.48 805.276Z" fill="#FF4747" fill-opacity="0.3"/>
</g>
</g>
<g opacity="0.25">
<g opacity="0.25">
<path opacity="0.25" d="M2823.48 733.39H2907.61C2911.81 733.39 2915.21 736.795 2915.21 740.994C2915.21 745.193 2911.81 748.598 2907.61 748.598H2823.48C2819.28 748.598 2815.88 745.193 2815.88 740.994C2815.88 736.795 2819.28 733.39 2823.48 733.39Z" fill="#FF4747" fill-opacity="0.3"/>
</g>
</g>
<g opacity="0.25">
<g opacity="0.25">
<path opacity="0.25" d="M2823.48 625.56H2907.61C2911.81 625.56 2915.21 628.965 2915.21 633.164C2915.21 637.363 2911.81 640.768 2907.61 640.768H2823.48C2819.28 640.768 2815.88 637.363 2815.88 633.164C2815.88 628.965 2819.28 625.56 2823.48 625.56Z" fill="#FF4747" fill-opacity="0.3"/>
</g>
</g>
<g opacity="0.25">
<g opacity="0.25">
<path opacity="0.25" d="M2823.48 697.446H2907.61C2911.81 697.446 2915.21 700.851 2915.21 705.05C2915.21 709.249 2911.81 712.654 2907.61 712.654H2823.48C2819.28 712.654 2815.88 709.249 2815.88 705.05C2815.88 700.851 2819.28 697.446 2823.48 697.446Z" fill="#FF4747" fill-opacity="0.3"/>
</g>
</g>
<g opacity="0.25">
<g opacity="0.25">
<path opacity="0.25" d="M2823.48 661.504H2907.61C2911.81 661.504 2915.21 664.909 2915.21 669.108C2915.21 673.307 2911.81 676.712 2907.61 676.712H2823.48C2819.28 676.712 2815.88 673.307 2815.88 669.108C2815.88 664.909 2819.28 661.504 2823.48 661.504Z" fill="#FF4747" fill-opacity="0.3"/>
</g>
</g>
<g opacity="0.25">
<g opacity="0.25">
<path opacity="0.25" d="M3200.04 683.98C3204.24 683.98 3207.65 687.385 3207.65 691.584V711.353C3207.65 715.552 3204.24 718.957 3200.04 718.957C3195.84 718.957 3192.44 715.552 3192.44 711.353V691.584C3192.44 687.385 3195.84 683.98 3200.04 683.98Z" fill="#FF4747" fill-opacity="0.3"/>
</g>
</g>
<g opacity="0.25">
<g opacity="0.25">
<path opacity="0.25" d="M3200.04 736.445C3204.24 736.445 3207.65 739.85 3207.65 744.049V763.818C3207.65 768.017 3204.24 771.422 3200.04 771.422C3195.84 771.422 3192.44 768.017 3192.44 763.818V744.049C3192.44 739.849 3195.84 736.445 3200.04 736.445Z" fill="#FF4747" fill-opacity="0.3"/>
</g>
</g>
<g opacity="0.25">
<g opacity="0.25">
<path opacity="0.25" d="M3200.04 788.91C3204.24 788.91 3207.65 792.315 3207.65 796.514V816.283C3207.65 820.482 3204.24 823.887 3200.04 823.887C3195.84 823.887 3192.44 820.482 3192.44 816.283V796.514C3192.44 792.314 3195.84 788.91 3200.04 788.91Z" fill="#FF4747" fill-opacity="0.3"/>
</g>
</g>
<g opacity="0.25">
<g opacity="0.25">
<path opacity="0.25" d="M2763.84 759.478C2768.04 759.478 2771.44 762.883 2771.44 767.082V788.602C2771.44 792.801 2768.04 796.206 2763.84 796.206C2759.64 796.206 2756.23 792.801 2756.23 788.602V767.082C2756.23 762.883 2759.64 759.478 2763.84 759.478Z" fill="#FF4747" fill-opacity="0.3"/>
</g>
</g>
<g opacity="0.25">
<g opacity="0.25">
<path opacity="0.25" d="M2786.13 487.27H2878.89C2883.09 487.27 2886.5 490.675 2886.5 494.874C2886.5 499.073 2883.09 502.478 2878.89 502.478H2786.13C2781.93 502.478 2778.53 499.073 2778.53 494.874C2778.53 490.675 2781.93 487.27 2786.13 487.27Z" fill="#FF4747" fill-opacity="0.3"/>
</g>
</g>
<g opacity="0.25">
<g opacity="0.25">
<path opacity="0.25" d="M2757.24 519.205H2824.15C2828.35 519.205 2831.75 522.61 2831.75 526.809C2831.75 531.008 2828.35 534.413 2824.15 534.413H2757.24C2753.04 534.413 2749.63 531.008 2749.63 526.809C2749.63 522.61 2753.04 519.205 2757.24 519.205Z" fill="#FF4747" fill-opacity="0.3"/>
</g>
</g>
<g opacity="0.25">
<g opacity="0.25">
<path opacity="0.25" d="M3102.44 397.547H3169.35C3173.55 397.547 3176.96 400.952 3176.96 405.151C3176.96 409.35 3173.55 412.755 3169.35 412.755H3102.44C3098.24 412.755 3094.84 409.35 3094.84 405.151C3094.84 400.952 3098.24 397.547 3102.44 397.547Z" fill="#FF4747" fill-opacity="0.3"/>
</g>
</g>
<g opacity="0.25">
<g opacity="0.25">
<path opacity="0.25" d="M3140.46 422.893H3207.37C3211.57 422.893 3214.97 426.298 3214.97 430.497C3214.97 434.696 3211.57 438.101 3207.37 438.101H3140.46C3136.26 438.101 3132.85 434.696 3132.85 430.497C3132.85 426.298 3136.26 422.893 3140.46 422.893Z" fill="#FF4747" fill-opacity="0.3"/>
</g>
</g>
</g>
<path opacity="0.25" d="M2185.12 914.602H2114.37" stroke="#FF4747" stroke-opacity="0.3" stroke-width="15.1181" stroke-linecap="round" stroke-linejoin="round"/>
<path opacity="0.25" d="M1716.53 857.477H1698.02" stroke="#FF4747" stroke-opacity="0.3" stroke-width="15.1181" stroke-linecap="round" stroke-linejoin="round"/>
<path opacity="0.25" d="M1412.19 945.384H1018.83" stroke="#FF4747" stroke-opacity="0.3" stroke-width="15.1181" stroke-linecap="round" stroke-linejoin="round"/>
<path opacity="0.25" d="M416.063 862.828H280.976" stroke="#FF4747" stroke-opacity="0.3" stroke-width="15.1181" stroke-linecap="round" stroke-linejoin="round"/>
<g opacity="0.25">
<g opacity="0.25">
<g opacity="0.25">
<path opacity="0.25" d="M591.107 701.445H599.639V644.815C599.639 640.673 602.997 637.315 607.139 637.315H695.832V564.654C695.832 560.512 699.19 557.154 703.332 557.154H743.929V532.59C743.929 528.448 747.287 525.09 751.429 525.09H824.09V452.429C824.09 448.287 827.448 444.929 831.59 444.929H840.835C843.881 429.116 856.374 416.632 872.187 413.585V372.267C872.187 368.125 875.545 364.767 879.687 364.767C883.829 364.767 887.187 368.125 887.187 372.267V413.584C902.999 416.631 915.492 429.115 918.539 444.928H927.784C931.926 444.928 935.284 448.286 935.284 452.428V509.057H991.913C996.055 509.057 999.413 512.415 999.413 516.557V573.186H1072.08C1076.22 573.186 1079.58 576.544 1079.58 580.686V701.444H1088.11C1092.25 701.444 1095.61 704.802 1095.61 708.944C1095.61 713.086 1092.25 716.444 1088.11 716.444H591.107C586.965 716.444 583.607 713.086 583.607 708.944C583.607 704.802 586.965 701.445 591.107 701.445ZM984.414 524.057H903.22V541.121H984.414V524.057ZM951.317 701.445H968.382V692.913C968.382 688.771 971.74 685.413 975.882 685.413C980.024 685.413 983.382 688.771 983.382 692.913V701.445H1000.45V692.913C1000.45 688.771 1003.8 685.413 1007.95 685.413C1012.09 685.413 1015.45 688.771 1015.45 692.913V701.445H1032.51V692.913C1032.51 688.771 1035.87 685.413 1040.01 685.413C1044.15 685.413 1047.51 688.771 1047.51 692.913V701.445H1064.58V588.187H951.317V701.445ZM984.414 573.185V556.121H903.22V573.185H943.817H984.414ZM919.252 701.445H936.316V684.38H919.252V701.445ZM919.252 669.379H936.316V652.315H919.252V669.379ZM919.252 637.315H936.316V620.251H919.252V637.315ZM936.316 605.25V588.186H903.22V605.25H911.752H936.316ZM758.931 557.153H783.495C787.637 557.153 790.995 560.511 790.995 564.653C790.995 568.795 787.637 572.153 783.495 572.153H758.931V589.217H783.495C787.637 589.217 790.995 592.575 790.995 596.717C790.995 600.859 787.637 604.217 783.495 604.217H758.931V621.281H783.495C787.637 621.281 790.995 624.639 790.995 628.781C790.995 632.923 787.637 636.281 783.495 636.281H758.931V653.345H783.495C787.637 653.345 790.995 656.703 790.995 660.845C790.995 664.987 787.637 668.345 783.495 668.345H758.931V701.442H808.06V692.91C808.06 688.768 811.418 685.41 815.56 685.41C819.702 685.41 823.06 688.768 823.06 692.91V701.442H840.124V684.895C840.124 680.753 843.482 677.395 847.624 677.395C851.766 677.395 855.124 680.753 855.124 684.895V701.444H872.188V684.895C872.188 680.753 875.546 677.395 879.688 677.395C883.83 677.395 887.188 680.753 887.188 684.895V701.444H904.252V620.25H823.059V660.847C823.059 664.989 819.701 668.347 815.559 668.347C811.417 668.347 808.059 664.989 808.059 660.847V612.75C808.059 608.608 811.417 605.25 815.559 605.25H824.091V580.687C824.091 576.545 827.449 573.187 831.591 573.187C835.733 573.187 839.091 576.545 839.091 580.687V605.25H888.22V516.557C888.22 512.415 891.578 509.057 895.72 509.057H920.284V459.928H911.752C907.61 459.928 904.252 456.57 904.252 452.428C904.252 438.883 893.232 427.863 879.688 427.863C866.144 427.863 855.124 438.883 855.124 452.428C855.124 456.57 851.766 459.928 847.624 459.928H839.092V548.623C839.092 552.765 835.734 556.123 831.592 556.123C827.45 556.123 824.092 552.765 824.092 548.623V540.089H758.931V557.153ZM726.866 644.815V701.444H743.93V572.154H710.833V637.315H719.366C723.508 637.315 726.866 640.673 726.866 644.815ZM614.639 701.445H639.72V676.881C639.72 672.739 643.078 669.381 647.22 669.381C651.362 669.381 654.72 672.739 654.72 676.881V701.445H671.783V676.881C671.783 672.739 675.141 669.381 679.283 669.381C683.425 669.381 686.783 672.739 686.783 676.881V701.445H711.865V652.315H614.639V701.445Z" fill="#FF4747" fill-opacity="0.3"/>
</g>
</g>
<g opacity="0.25">
<g opacity="0.25">
<path opacity="0.25" d="M863.575 476.991H863.655C867.797 476.991 871.115 480.349 871.115 484.491C871.115 488.633 867.717 491.991 863.575 491.991C859.433 491.991 856.075 488.633 856.075 484.491C856.075 480.35 859.433 476.991 863.575 476.991Z" fill="#FF4747" fill-opacity="0.3"/>
</g>
</g>
<g opacity="0.25">
<g opacity="0.25">
<path opacity="0.25" d="M863.575 573.187H863.655C867.797 573.187 871.115 576.545 871.115 580.687C871.115 584.829 867.717 588.187 863.575 588.187C859.433 588.187 856.075 584.829 856.075 580.687C856.075 576.544 859.433 573.187 863.575 573.187Z" fill="#FF4747" fill-opacity="0.3"/>
</g>
</g>
<g opacity="0.25">
<g opacity="0.25">
<path opacity="0.25" d="M863.575 541.122H863.655C867.797 541.122 871.115 544.48 871.115 548.622C871.115 552.764 867.717 556.122 863.575 556.122C859.433 556.122 856.075 552.764 856.075 548.622C856.075 544.479 859.433 541.122 863.575 541.122Z" fill="#FF4747" fill-opacity="0.3"/>
</g>
</g>
<g opacity="0.25">
<g opacity="0.25">
<path opacity="0.25" d="M863.575 509.057H863.655C867.797 509.057 871.115 512.415 871.115 516.557C871.115 520.699 867.717 524.057 863.575 524.057C859.433 524.057 856.075 520.699 856.075 516.557C856.075 512.416 859.433 509.057 863.575 509.057Z" fill="#FF4747" fill-opacity="0.3"/>
</g>
</g>
<g opacity="0.25">
<g opacity="0.25">
<path opacity="0.25" d="M895.64 476.991H895.72C899.862 476.991 903.18 480.349 903.18 484.491C903.18 488.633 899.782 491.991 895.64 491.991C891.498 491.991 888.14 488.633 888.14 484.491C888.14 480.35 891.498 476.991 895.64 476.991Z" fill="#FF4747" fill-opacity="0.3"/>
</g>
</g>
<g opacity="0.25">
<g opacity="0.25">
<path opacity="0.25" d="M1040.01 645.332C1044.15 645.332 1047.51 648.69 1047.51 652.832V660.848C1047.51 664.99 1044.15 668.348 1040.01 668.348C1035.87 668.348 1032.51 664.99 1032.51 660.848V652.832C1032.51 648.69 1035.87 645.332 1040.01 645.332Z" fill="#FF4747" fill-opacity="0.3"/>
</g>
</g>
<g opacity="0.25">
<g opacity="0.25">
<path opacity="0.25" d="M1007.95 645.332C1012.09 645.332 1015.45 648.69 1015.45 652.832V660.848C1015.45 664.99 1012.09 668.348 1007.95 668.348C1003.8 668.348 1000.45 664.99 1000.45 660.848V652.832C1000.45 648.69 1003.8 645.332 1007.95 645.332Z" fill="#FF4747" fill-opacity="0.3"/>
</g>
</g>
<g opacity="0.25">
<g opacity="0.25">
<path opacity="0.25" d="M975.882 645.332C980.024 645.332 983.382 648.69 983.382 652.832V660.848C983.382 664.99 980.024 668.348 975.882 668.348C971.74 668.348 968.382 664.99 968.382 660.848V652.832C968.382 648.69 971.74 645.332 975.882 645.332Z" fill="#FF4747" fill-opacity="0.3"/>
</g>
</g>
<g opacity="0.25">
<g opacity="0.25">
<path opacity="0.25" d="M1040.01 605.25C1044.15 605.25 1047.51 608.608 1047.51 612.75V620.766C1047.51 624.908 1044.15 628.266 1040.01 628.266C1035.87 628.266 1032.51 624.908 1032.51 620.766V612.75C1032.51 608.608 1035.87 605.25 1040.01 605.25Z" fill="#FF4747" fill-opacity="0.3"/>
</g>
</g>
<g opacity="0.25">
<g opacity="0.25">
<path opacity="0.25" d="M1007.95 605.25C1012.09 605.25 1015.45 608.608 1015.45 612.75V620.766C1015.45 624.908 1012.09 628.266 1007.95 628.266C1003.8 628.266 1000.45 624.908 1000.45 620.766V612.75C1000.45 608.608 1003.8 605.25 1007.95 605.25Z" fill="#FF4747" fill-opacity="0.3"/>
</g>
</g>
<g opacity="0.25">
<g opacity="0.25">
<path opacity="0.25" d="M975.882 605.25C980.024 605.25 983.382 608.608 983.382 612.75V620.766C983.382 624.908 980.024 628.266 975.882 628.266C971.74 628.266 968.382 624.908 968.382 620.766V612.75C968.382 608.608 971.74 605.25 975.882 605.25Z" fill="#FF4747" fill-opacity="0.3"/>
</g>
</g>
<g opacity="0.25">
<g opacity="0.25">
<path opacity="0.25" d="M879.688 637.315C883.83 637.315 887.188 640.673 887.188 644.815V652.831C887.188 656.973 883.83 660.331 879.688 660.331C875.545 660.331 872.188 656.973 872.188 652.831V644.815C872.188 640.672 875.545 637.315 879.688 637.315Z" fill="#FF4747" fill-opacity="0.3"/>
</g>
</g>
<g opacity="0.25">
<g opacity="0.25">
<path opacity="0.25" d="M847.623 637.315C851.765 637.315 855.123 640.673 855.123 644.815V652.831C855.123 656.973 851.765 660.331 847.623 660.331C843.481 660.331 840.123 656.973 840.123 652.831V644.815C840.123 640.672 843.481 637.315 847.623 637.315Z" fill="#FF4747" fill-opacity="0.3"/>
</g>
</g>
</g>
<path opacity="0.25" d="M896.063 811.398H760.976" stroke="#FF4747" stroke-opacity="0.3" stroke-width="15.1181" stroke-linecap="round" stroke-linejoin="round"/>
<path opacity="0.25" d="M496.047 708.893H456.409" stroke="#FF4747" stroke-opacity="0.3" stroke-width="15.1181" stroke-linecap="round" stroke-linejoin="round"/>
<path opacity="0.25" d="M281.291 708.893H146.203" stroke="#FF4747" stroke-opacity="0.3" stroke-width="15.1181" stroke-linecap="round" stroke-linejoin="round"/>
<path opacity="0.25" d="M770.021 454.016L652.621 345.706L474.926 523.402" stroke="#FF4747" stroke-opacity="0.3" stroke-width="15.1181" stroke-linecap="round" stroke-linejoin="round"/>
<path opacity="0.25" d="M255.229 429.758L441.308 244.392L596.424 401.924" stroke="#FF4747" stroke-opacity="0.3" stroke-width="15.1181" stroke-linecap="round" stroke-linejoin="round"/>
<path opacity="0.25" d="M95.2373 477.943L241.933 333.267L294.905 390.084" stroke="#FF4747" stroke-opacity="0.3" stroke-width="15.1181" stroke-linecap="round" stroke-linejoin="round"/>
<path opacity="0.25" d="M155.222 293.267H20.1348" stroke="#FF4747" stroke-opacity="0.3" stroke-width="15.1181" stroke-linecap="round" stroke-linejoin="round"/>
<path opacity="0.25" d="M895.222 260.41H760.136" stroke="#FF4747" stroke-opacity="0.3" stroke-width="15.1181" stroke-linecap="round" stroke-linejoin="round"/>
<path opacity="0.25" d="M3045.94 260.223H3038.04C3017.62 260.223 3001 243.605 3001 223.179C3001 202.764 3017.6 186.153 3038.01 186.135C3038.08 186.137 3038.14 186.139 3038.21 186.139H3038.21C3058.56 186.233 3075.08 202.81 3075.08 223.178C3075.08 225.215 3076.73 226.866 3078.76 226.866C3080.8 226.866 3082.45 225.215 3082.45 223.178C3082.45 199.931 3064.5 180.801 3041.74 178.913C3041.74 178.734 3041.74 178.551 3041.74 178.373C3041.74 171.417 3043.51 164.546 3046.85 158.502C3047.83 156.719 3047.19 154.476 3045.41 153.49C3043.62 152.505 3041.38 153.15 3040.39 154.932C3036.45 162.066 3034.36 170.171 3034.36 178.372C3034.36 178.551 3034.36 178.73 3034.37 178.909C3011.59 180.789 2993.64 199.925 2993.64 223.178C2993.64 247.672 3013.56 267.598 3038.05 267.598H3045.95C3047.99 267.598 3049.64 265.947 3049.64 263.91C3049.64 261.874 3047.99 260.222 3045.95 260.222L3045.94 260.223Z" fill="#FF4747" fill-opacity="0.3"/>
<path opacity="0.25" d="M3210.82 195.092C3205.83 180.542 3192.11 170.611 3176.51 170.611C3170.4 170.611 3164.49 172.123 3159.19 175.012C3154.02 167.281 3145.22 162.465 3135.78 162.465C3133.45 162.465 3131.16 162.747 3128.93 163.307C3126.01 154.401 3120.5 146.41 3113.13 140.505C3104.57 133.653 3093.82 129.879 3082.84 129.879C3070.82 129.879 3059.29 134.309 3050.37 142.352C3048.86 143.716 3048.74 146.048 3050.1 147.561C3051.47 149.074 3053.8 149.192 3055.31 147.829C3062.87 141.011 3072.65 137.255 3082.84 137.255C3101 137.255 3116.72 148.951 3122.05 166.032C3113.32 170.909 3107.66 180.216 3107.66 190.593C3107.66 192.63 3109.31 194.281 3111.34 194.281C3113.38 194.281 3115.03 192.63 3115.03 190.593C3115.03 182.114 3120.16 174.605 3127.8 171.431C3127.8 171.427 3127.8 171.435 3127.8 171.431C3130.33 170.385 3133.03 169.841 3135.78 169.841C3143.76 169.841 3151.13 174.51 3154.54 181.734C3155.01 182.716 3155.88 183.443 3156.93 183.722C3157.98 184 3159.1 183.803 3159.99 183.181C3164.85 179.783 3170.56 177.988 3176.51 177.988C3189.71 177.988 3201.22 186.908 3204.49 199.681C3204.92 201.354 3206.43 202.5 3208.18 202.451C3208.18 202.451 3208.87 202.427 3209.09 202.427C3225.02 202.427 3237.98 215.39 3237.98 231.325C3237.98 247.259 3225.02 260.223 3209.09 260.223C3193.15 260.223 3180.19 247.259 3180.19 231.325C3180.19 229.288 3178.54 227.636 3176.51 227.636C3174.47 227.636 3172.82 229.288 3172.82 231.325C3172.82 243.108 3178.47 253.592 3187.2 260.223H3060.69C3058.66 260.223 3057.01 261.874 3057.01 263.911C3057.01 265.947 3058.66 267.599 3060.69 267.599H3209.09C3229.08 267.599 3245.35 251.327 3245.35 231.325C3245.36 211.903 3230.01 195.998 3210.82 195.091L3210.82 195.092Z" fill="#FF4747" fill-opacity="0.3"/>
<path opacity="0.25" d="M3152.36 64.7078C3152.36 64.7078 3152.32 64.7088 3152.31 64.7088C3152.27 64.7088 3152.26 64.7078 3152.24 64.7078C3127.75 64.7078 3107.83 84.6345 3107.83 109.128C3107.83 133.622 3127.75 153.549 3152.24 153.549C3152.28 153.549 3152.29 153.548 3152.31 153.548C3152.31 153.548 3152.35 153.548 3152.37 153.548C3176.86 153.548 3196.79 133.621 3196.79 109.128C3196.79 84.6345 3176.86 64.7078 3152.37 64.7078H3152.36ZM3131.6 78.3801C3131.77 78.3038 3131.93 78.2184 3132.09 78.1147C3137.32 74.6932 3143.28 72.6731 3149.49 72.1961C3149.58 72.1879 3152.17 72.0851 3152.29 72.0851C3172.69 72.1136 3189.27 88.7191 3189.27 109.128C3189.27 129.532 3172.7 146.134 3152.3 146.171C3131.9 146.138 3115.32 129.535 3115.32 109.128C3115.32 101.249 3117.76 93.7285 3122.37 87.3777C3122.51 87.1862 3122.62 86.9853 3122.72 86.7787C3125.2 83.516 3128.2 80.6723 3131.6 78.3804V78.3801Z" fill="#FF4747" fill-opacity="0.3"/>
<path opacity="0.25" d="M3152.24 55.7912C3154.27 55.7912 3155.92 54.14 3155.92 52.1032V19.5172C3155.92 17.4804 3154.27 15.8291 3152.24 15.8291C3150.2 15.8291 3148.55 17.4804 3148.55 19.5172V52.1032C3148.55 54.14 3150.2 55.7912 3152.24 55.7912Z" fill="#FF4747" fill-opacity="0.3"/>
<path opacity="0.25" d="M3205.57 109.128C3205.57 111.165 3207.22 112.816 3209.26 112.816H3241.85C3243.89 112.816 3245.54 111.165 3245.54 109.128C3245.54 107.091 3243.89 105.44 3241.85 105.44H3209.26C3207.22 105.44 3205.57 107.091 3205.57 109.128Z" fill="#FF4747" fill-opacity="0.3"/>
<path opacity="0.25" d="M3062.63 112.816H3095.21C3097.25 112.816 3098.9 111.165 3098.9 109.128C3098.9 107.091 3097.25 105.44 3095.21 105.44H3062.63C3060.59 105.44 3058.94 107.091 3058.94 109.128C3058.94 111.165 3060.59 112.816 3062.63 112.816Z" fill="#FF4747" fill-opacity="0.3"/>
<path opacity="0.25" d="M3192.56 72.4927C3193.5 72.4927 3194.45 72.1325 3195.17 71.4123L3218.21 48.3709C3219.65 46.9307 3219.65 44.5954 3218.21 43.1555C3216.77 41.7152 3214.43 41.7152 3212.99 43.1555L3189.95 66.1969C3188.51 67.6372 3188.51 69.9725 3189.95 71.4123C3190.67 72.1327 3191.62 72.4927 3192.56 72.4927Z" fill="#FF4747" fill-opacity="0.3"/>
<path opacity="0.25" d="M3212.99 175.101C3213.71 175.821 3214.66 176.181 3215.6 176.181C3216.54 176.181 3217.49 175.821 3218.21 175.101C3219.65 173.66 3219.65 171.325 3218.21 169.885L3195.17 146.843C3193.73 145.403 3191.39 145.403 3189.95 146.843C3188.51 148.284 3188.51 150.619 3189.95 152.059L3212.99 175.101Z" fill="#FF4747" fill-opacity="0.3"/>
<path opacity="0.25" d="M3109.31 71.4128C3110.03 72.1327 3110.97 72.4932 3111.91 72.4932C3112.86 72.4932 3113.8 72.133 3114.52 71.4128C3115.96 69.9725 3115.96 67.6372 3114.52 66.1974L3091.48 43.1555C3090.04 41.7152 3087.71 41.7152 3086.26 43.1555C3084.82 44.5959 3084.82 46.9311 3086.26 48.3709L3109.31 71.4128Z" fill="#FF4747" fill-opacity="0.3"/>
<path opacity="0.25" d="M3127.01 57.8546C3127.6 59.2748 3128.97 60.1324 3130.42 60.1324C3130.89 60.1324 3131.37 60.0417 3131.83 59.8507C3133.71 59.0712 3134.6 56.9135 3133.82 55.0321L3127.59 39.9796C3126.81 38.0977 3124.65 37.2033 3122.77 37.9836C3120.89 38.7631 3119.99 40.9207 3120.77 42.8021L3127.01 57.8546Z" fill="#FF4747" fill-opacity="0.3"/>
<path opacity="0.25" d="M3083.09 84.4782L3098.14 90.7134C3098.6 90.9049 3099.08 90.9951 3099.55 90.9951C3101 90.9951 3102.37 90.1375 3102.96 88.7173C3103.74 86.8355 3102.85 84.6783 3100.96 83.8989L3085.91 77.6637C3084.03 76.8843 3081.87 77.7775 3081.09 79.6596C3080.31 81.541 3081.21 83.6983 3083.09 84.4782Z" fill="#FF4747" fill-opacity="0.3"/>
<path opacity="0.25" d="M3223.38 138.597C3224.16 136.715 3223.27 134.558 3221.38 133.779L3206.33 127.544C3204.45 126.765 3202.29 127.658 3201.51 129.54C3200.73 131.421 3201.63 133.579 3203.51 134.358L3218.56 140.593C3219.02 140.785 3219.5 140.875 3219.97 140.875C3221.42 140.875 3222.79 140.017 3223.38 138.597Z" fill="#FF4747" fill-opacity="0.3"/>
<path opacity="0.25" d="M3203.51 83.898C3201.63 84.6775 3200.73 86.8352 3201.51 88.7166C3202.1 90.1368 3203.48 90.9944 3204.92 90.9944C3205.39 90.9944 3205.87 90.9037 3206.33 90.7127L3221.38 84.4774C3223.27 83.698 3224.16 81.5403 3223.38 79.6589C3222.6 77.7775 3220.44 76.883 3218.56 77.6629L3203.51 83.898Z" fill="#FF4747" fill-opacity="0.3"/>
<path opacity="0.25" d="M3172.65 59.8508C3173.11 60.0423 3173.59 60.1325 3174.06 60.1325C3175.5 60.1325 3176.88 59.2749 3177.47 57.8547L3183.7 42.8021C3184.48 40.9202 3183.59 38.7629 3181.71 37.9835C3179.83 37.2046 3177.67 38.0975 3176.89 39.9796L3170.65 55.0321C3169.87 56.914 3170.77 59.0712 3172.65 59.8507V59.8508Z" fill="#FF4747" fill-opacity="0.3"/>
<g opacity="0.25">
<g opacity="0.25">
<path opacity="0.25" d="M2651.15 98.5892C2651.15 98.4695 2651.15 98.3498 2651.15 98.2301C2651.15 90.3636 2657.53 83.9885 2665.4 83.9792H2665.54C2667.1 68.3161 2681.07 56.8852 2696.73 58.4481C2709.16 59.6887 2719.34 68.884 2721.83 81.1291C2728.82 80.849 2734.97 85.6783 2736.37 92.5297H2736.65C2744.52 92.5297 2750.9 98.9102 2750.9 106.781C2750.9 114.651 2744.52 121.031 2736.65 121.031H2654C2647.7 121.037 2642.59 115.938 2642.58 109.642C2642.58 104.435 2646.1 99.8856 2651.15 98.5892ZM2654 115.331H2736.65C2741.37 115.331 2745.2 111.503 2745.2 106.781C2745.2 102.058 2741.37 98.2301 2736.65 98.2301C2735.91 98.2361 2735.18 98.3316 2734.46 98.5151C2732.94 98.8973 2731.39 97.9693 2731.01 96.4423C2730.92 96.0857 2730.9 95.7151 2730.95 95.3514C2730.93 90.6401 2727.11 86.8294 2722.4 86.8294C2721.65 86.8262 2720.91 86.922 2720.19 87.1144C2718.67 87.5309 2717.1 86.6377 2716.69 85.1196C2716.64 84.9611 2716.61 84.7986 2716.6 84.6348C2715.4 72.0987 2704.27 62.9033 2691.74 64.0965C2680.02 65.2116 2671.08 75.0603 2671.1 86.8294V87.1999C2671.1 88.7739 2669.82 90.0508 2668.25 90.0511C2667.99 90.0511 2667.73 90.0155 2667.47 89.9446C2666.8 89.7597 2666.1 89.6703 2665.4 89.6796C2660.67 89.6796 2656.85 93.5077 2656.85 98.2301C2656.85 98.9675 2656.95 99.7018 2657.13 100.416C2657.51 101.943 2656.59 103.491 2655.06 103.873C2654.7 103.962 2654.33 103.982 2653.97 103.93C2650.82 103.938 2648.27 106.497 2648.28 109.645C2648.29 112.793 2650.85 115.339 2654 115.331Z" fill="#FF4747" fill-opacity="0.3"/>
</g>
</g>
<g opacity="0.25">
<g opacity="0.25">
<path opacity="0.25" d="M2373.73 415.173H2374.11C2376.21 404.904 2386.25 398.287 2396.52 400.393C2401.67 401.451 2406.16 404.605 2408.9 409.099C2416.45 405.444 2425.53 408.599 2429.19 416.147C2432.84 423.694 2429.69 432.776 2422.14 436.431C2420.07 437.436 2417.79 437.955 2415.48 437.95H2373.73C2367.44 437.95 2362.34 432.851 2362.34 426.561C2362.34 420.272 2367.44 415.173 2373.73 415.173ZM2373.73 430.357H2415.49C2419.68 430.357 2423.08 426.958 2423.08 422.765C2423.08 418.572 2419.68 415.173 2415.49 415.173C2413.45 415.155 2411.5 415.98 2410.1 417.451C2408.68 418.993 2406.28 419.092 2404.74 417.671C2404.21 417.189 2403.84 416.569 2403.65 415.883C2401.9 409.84 2395.59 406.358 2389.55 408.104C2384.7 409.504 2381.35 413.925 2381.32 418.969C2381.32 421.065 2379.62 422.765 2377.52 422.765H2373.73C2371.63 422.765 2369.93 424.465 2369.93 426.561C2369.93 428.658 2371.63 430.357 2373.73 430.357Z" fill="#FF4747" fill-opacity="0.3"/>
</g>
</g>
<g opacity="0.25">
<g opacity="0.25">
<path opacity="0.25" d="M2019.55 281.972C2022.79 270.976 2033.74 264.132 2045.04 266.026C2055.25 255.657 2071.94 255.529 2082.31 265.741C2084.54 267.942 2086.37 270.524 2087.69 273.367C2088.52 273.273 2089.35 273.227 2090.18 273.228C2102.65 273.228 2112.76 283.34 2112.76 295.814C2112.76 308.288 2102.65 318.401 2090.18 318.401H2026.18C2015.79 318.388 2007.37 309.951 2007.38 299.556C2007.39 291.736 2012.24 284.737 2019.55 281.972ZM2015.32 302.276C2016.55 307.286 2021.02 310.823 2026.18 310.871H2090.18C2098.49 310.877 2105.24 304.141 2105.25 295.825C2105.25 287.509 2098.52 280.762 2090.2 280.756C2088.88 280.755 2087.57 280.927 2086.3 281.268C2084.35 281.787 2082.35 280.69 2081.74 278.776C2078.57 268.876 2067.97 263.42 2058.07 266.59C2054.62 267.696 2051.56 269.774 2049.26 272.576C2048.31 273.721 2046.78 274.202 2045.35 273.803C2037.31 271.555 2028.98 276.248 2026.73 284.284C2026.61 284.718 2026.51 285.157 2026.42 285.6C2026.16 287.08 2025.05 288.263 2023.59 288.612C2017.53 290.102 2013.83 296.22 2015.32 302.276Z" fill="#FF4747" fill-opacity="0.3"/>
</g>
</g>
<g opacity="0.25">
<g opacity="0.25">
<path opacity="0.25" d="M702.574 54.5477C702.574 54.428 702.574 54.3083 702.574 54.1885C702.584 46.3221 708.959 39.947 716.825 39.9377H716.968C718.531 24.2746 732.495 12.8437 748.158 14.4066C760.592 15.6472 770.768 24.8425 773.258 37.0875C780.244 36.8075 786.402 41.6368 787.794 48.4882H788.079C795.95 48.4882 802.33 54.8687 802.33 62.739C802.33 70.6094 795.95 76.9899 788.079 76.9899H705.424C699.128 76.9959 694.019 71.897 694.012 65.6006C694.007 60.393 697.531 55.8441 702.574 54.5477ZM705.424 71.2895H788.079C792.802 71.2895 796.63 67.4614 796.63 62.739C796.63 58.0167 792.802 54.1885 788.079 54.1885C787.342 54.1946 786.607 54.2901 785.893 54.4736C784.366 54.8558 782.819 53.9278 782.436 52.4008C782.347 52.0442 782.328 51.6736 782.379 51.3099C782.363 46.5986 778.54 42.7879 773.828 42.7879C773.082 42.7847 772.338 42.8805 771.617 43.0729C770.099 43.4894 768.531 42.5962 768.114 41.0781C768.071 40.9196 768.041 40.7571 768.025 40.5933C766.832 28.0572 755.702 18.8618 743.166 20.055C731.45 21.1701 722.508 31.0188 722.525 42.7879V43.1584C722.526 44.7324 721.251 46.0093 719.676 46.0096C719.415 46.0096 719.154 45.974 718.903 45.9031C718.226 45.7182 717.527 45.6288 716.825 45.638C712.103 45.638 708.275 49.4662 708.275 54.1885C708.279 54.926 708.375 55.6603 708.56 56.3746C708.942 57.9016 708.014 59.4492 706.487 59.8315C706.13 59.9209 705.76 59.9402 705.396 59.8889C702.248 59.8967 699.702 62.4551 699.71 65.6035C699.718 68.7515 702.276 71.2974 705.424 71.2895Z" fill="#FF4747" fill-opacity="0.3"/>
</g>
</g>
<g opacity="0.25">
<g opacity="0.25">
<path opacity="0.25" d="M1132.68 295.916C1137.23 280.487 1152.58 270.883 1168.45 273.541C1182.78 258.991 1206.19 258.812 1220.74 273.141C1223.88 276.229 1226.43 279.853 1228.3 283.841C1229.45 283.71 1230.62 283.645 1231.78 283.646C1249.29 283.646 1263.48 297.835 1263.48 315.339C1263.48 332.842 1249.29 347.031 1231.78 347.031H1141.99C1127.4 347.014 1115.59 335.176 1115.61 320.589C1115.62 309.616 1122.42 299.795 1132.68 295.916ZM1126.75 324.406C1128.47 331.435 1134.75 336.399 1141.99 336.466H1231.78C1243.45 336.475 1252.92 327.023 1252.93 315.354C1252.94 303.685 1243.48 294.218 1231.82 294.209C1229.97 294.208 1228.12 294.449 1226.34 294.927C1223.61 295.656 1220.8 294.116 1219.94 291.43C1215.49 277.539 1200.62 269.884 1186.73 274.332C1181.89 275.883 1177.6 278.8 1174.37 282.731C1173.04 284.338 1170.89 285.013 1168.88 284.453C1157.61 281.299 1145.91 287.884 1142.75 299.16C1142.58 299.769 1142.44 300.385 1142.32 301.007C1141.96 303.083 1140.4 304.743 1138.35 305.233C1129.85 307.324 1124.65 315.909 1126.75 324.406Z" fill="#FF4747" fill-opacity="0.3"/>
</g>
</g>
<g opacity="0.25">
<g opacity="0.25">
<path opacity="0.25" d="M1439.31 15.1705H1438.93C1436.83 4.9016 1426.8 -1.71548 1416.53 0.390882C1411.37 1.44905 1406.88 4.60219 1404.14 9.09678C1396.59 5.44161 1387.51 8.59664 1383.85 16.1442C1380.2 23.6918 1383.35 32.7736 1390.9 36.4287C1392.98 37.4333 1395.25 37.9524 1397.56 37.9472H1439.31C1445.6 37.9472 1450.7 32.8485 1450.7 26.5588C1450.7 20.2692 1445.6 15.1705 1439.31 15.1705ZM1439.31 30.355H1397.56C1393.36 30.355 1389.96 26.956 1389.96 22.7627C1389.96 18.5695 1393.36 15.1705 1397.56 15.1705C1399.59 15.1525 1401.54 15.9772 1402.94 17.4482C1404.36 18.9904 1406.76 19.0891 1408.3 17.6689C1408.83 17.1868 1409.2 16.567 1409.39 15.8804C1411.14 9.83796 1417.45 6.35551 1423.5 8.10172C1428.34 9.50201 1431.69 13.923 1431.72 18.9666C1431.72 21.063 1433.42 22.7627 1435.52 22.7627H1439.31C1441.41 22.7627 1443.11 24.4625 1443.11 26.5588C1443.11 28.6552 1441.41 30.355 1439.31 30.355Z" fill="#FF4747" fill-opacity="0.3"/>
</g>
</g>
<path opacity="0.25" d="M441.494 244.388V74.1577" stroke="#0F3559" stroke-opacity="0.3" stroke-width="11.3386" stroke-linecap="round" stroke-linejoin="round"/>
<path opacity="0.5" d="M566.978 125.153H443.609V86.8871C443.609 85.7004 444.571 84.7383 445.758 84.7383H564.83C566.017 84.7383 566.978 85.7004 566.978 86.8871V125.153Z" fill="#C8414B" fill-opacity="0.5"/>
<path opacity="0.5" d="M443.609 125.152H566.978V163.418C566.978 164.604 566.017 165.566 564.83 165.566H445.758C444.571 165.566 443.609 164.604 443.609 163.418V125.152Z" fill="#F5F5F5" fill-opacity="0.5"/>
</g>
<defs>
<clipPath id="clip0">
<rect width="3245.54" height="1170.79" fill="white"/>
</clipPath>
</defs>
</svg>
