<svg width="74" height="74" viewBox="0 0 74 74" fill="none" xmlns="http://www.w3.org/2000/svg">
<path d="M36.8402 0C16.4969 0 0 16.4952 0 36.8389C0 57.1803 16.4969 73.6773 36.8402 73.6773C57.1802 73.6773 73.6786 57.1803 73.6786 36.8389C73.6786 16.4952 57.1802 0 36.8402 0ZM55.3217 28.1854V33.1733C52.9694 33.1752 50.684 32.7203 48.5304 31.7966C47.1361 31.2172 45.8523 30.4564 44.6697 29.5474V44.8999C44.6697 48.3566 43.2929 51.6056 40.8135 54.0525C38.7923 56.0428 36.2439 57.3106 33.4769 57.7199C32.843 57.9013 32.1548 57.9012 31.4994 57.9012C28.5386 57.9012 25.7257 56.9418 23.4255 55.1722C22.9909 54.8472 22.593 54.4841 22.1761 54.0857C19.4923 51.4344 18.1097 47.8412 18.3422 44.0597C18.5576 41.182 19.6643 38.4359 21.593 36.2861C24.1339 33.4394 27.6906 31.8584 31.4921 31.8584C32.1803 31.8584 32.8322 31.8588 33.4713 32.0402V33.8856V39.0161C32.8738 38.8346 32.2044 38.7065 31.5142 38.7065C28.0408 38.7065 25.231 41.5386 25.2821 45.0138C25.2821 47.24 26.5319 49.1813 28.3234 50.2536C29.156 50.7604 30.1341 51.0684 31.1682 51.1228C31.9831 51.1228 32.7615 51.1227 33.4732 50.8128C35.9563 49.9979 37.7454 47.6634 37.7454 44.9142V34.6326V15.8632H44.6171C44.6171 16.5511 44.6165 17.2035 44.8358 17.8517C45.343 20.4558 46.8157 22.7156 48.8672 24.255C50.6602 25.5956 52.8656 26.3981 55.2728 26.3981C55.2743 26.3981 55.2728 26.3978 55.2728 26.3963V28.2454L55.3217 28.1854Z" fill="#FF4747"/>
</svg>
