<svg width="74" height="74" viewBox="0 0 74 74" fill="none" xmlns="http://www.w3.org/2000/svg">
<path fill-rule="evenodd" clip-rule="evenodd" d="M62.9137 10.7084C56.0184 3.80731 46.8499 0.00377953 37.0817 0C16.9565 0 0.577192 16.3798 0.568121 36.5104C0.568121 42.9461 2.25243 49.228 5.44386 54.7676L0.262695 73.6865L19.6199 68.6087C24.9535 71.5197 30.9579 73.0512 37.0679 73.0535C57.1927 73.0535 73.5743 56.6736 73.5815 36.539C73.5815 26.7836 69.7925 17.6109 62.8971 10.7084H62.9137ZM37.0817 66.8868C31.6362 66.8857 26.2964 65.421 21.6351 62.657L20.5306 62.0051L9.04622 65.0192L12.1088 53.8186L11.3854 52.6606C8.34586 47.8284 6.74395 42.2435 6.74584 36.5104C6.74584 19.7758 20.3681 6.16249 37.1057 6.16249C45.2143 6.16249 52.8342 9.32719 58.5639 15.0641C64.293 20.8011 67.4462 28.4254 67.4444 36.5344C67.4444 53.2686 53.8217 66.8836 37.0946 66.8836L37.0817 66.8868ZM53.7297 44.1571C52.8242 43.7058 48.3331 41.4939 47.4966 41.1882C46.664 40.9009 46.0483 40.7369 45.4436 41.6399C44.8279 42.5447 43.0894 44.6088 42.5554 45.2173C42.0304 45.8326 41.4866 45.9051 40.578 45.4554C39.6728 45.0037 36.7255 44.0254 33.2404 40.9266C30.5286 38.5081 28.6984 35.5205 28.1644 34.6081C27.639 33.7029 28.1645 33.2505 28.5787 32.7451C29.5568 31.5141 30.5578 30.233 30.8625 29.6244C31.1686 29.0088 31.0435 28.4838 30.6807 28.0318C30.4426 27.5802 28.6273 23.0842 27.8673 21.2575C27.1246 19.483 26.3836 19.7182 25.8151 19.7004C25.2901 19.7004 24.6743 19.7004 24.0582 19.7004C23.4611 19.7004 22.4652 19.9387 21.6231 20.8409C20.7905 21.7461 18.4305 23.9619 18.4305 28.4512C18.4305 32.9428 21.7002 37.2822 22.1583 37.8903C22.6096 38.5056 28.5914 47.7149 37.7406 51.6668C39.9183 52.6083 41.6165 53.1694 42.9439 53.5874C45.1288 54.2753 47.1186 54.1853 48.6897 53.9505C50.4457 53.6822 54.0899 51.7433 54.8481 49.6128C55.5908 47.4819 55.5908 45.6553 55.3731 45.2736C55.1388 44.893 54.5401 44.6576 53.6172 44.2055L53.7297 44.1571Z" fill="#FF4747"/>
</svg>
